<?xml version="1.0" standalone="no"?>
<!DOCTYPE svg PUBLIC "-//W3C//DTD SVG 1.1//EN" "http://www.w3.org/Graphics/SVG/1.1/DTD/svg11.dtd" >
<svg xmlns="http://www.w3.org/2000/svg">
<metadata>
This is a custom SVG webfont generated by Font Squirrel.
</metadata>
<defs>
<font id="webfontDp4Y5gUZ" horiz-adv-x="611" >
<font-face units-per-em="1000" ascent="750" descent="-250" />
<missing-glyph horiz-adv-x="305" />
<glyph unicode=" "  horiz-adv-x="305" />
<glyph unicode="&#x09;" horiz-adv-x="305" />
<glyph unicode="&#xa0;" horiz-adv-x="305" />
<glyph unicode="!" horiz-adv-x="333" d="M186 178h-42q0 8 -1 24t-1 24q-3 55 -11 148l-14 160q-6 68 -6 75q0 31 13 52.5t41 21.5t41 -21.5t13 -52.5q0 -7 -6 -75l-14 -160q-8 -93 -11 -148q0 -8 -1 -24t-1 -24zM166 97q25 0 40.5 -16t15.5 -40t-15.5 -40t-40.5 -16t-40.5 16t-15.5 40t15.5 40t40.5 16z" />
<glyph unicode="&#x22;" horiz-adv-x="333" d="M266 602l-16 -204q0 -31 -15 -31q-4 0 -7 2t-4.5 6.5t-2 8t-1 8.5t-0.5 6l-16 204q0 4 -0.5 15t-0.5 18q0 48 32 48t32 -48q0 -25 -1 -33zM129 602l-16 -204q0 -31 -15 -31q-4 0 -7 2t-4.5 6.5t-2 8t-1 8.5t-0.5 6l-16 204q0 4 -0.5 15t-0.5 18q0 48 32 48t32 -48 q0 -25 -1 -33z" />
<glyph unicode="#" d="M496 235l-3 -47h-88l-28 -188h-52l28 188h-116l-28 -188h-52l27 188h-92l3 47h95l19 135h-93l3 47h95l27 188h53l-28 -188h116l28 188h52l-28 -188h85l-3 -47h-87l-19 -135h86zM377 370h-116l-19 -135h116z" />
<glyph unicode="$" d="M272 362v208q-60 -5 -96.5 -32t-36.5 -72q0 -48 34 -72t99 -32zM332 254v-219q28 2 53 7.5t49 17t38.5 33.5t14.5 52q0 41 -36 66t-119 43zM272 35v234q-38 8 -52 11.5t-47.5 14t-48.5 21.5t-34.5 29t-27.5 43t-8 57q0 84 63.5 126.5t154.5 48.5v78h60v-78 q70 0 142.5 -44t72.5 -103q0 -31 -16.5 -49t-44.5 -18q-26 0 -42.5 16t-16.5 42q0 21 13.5 35t29.5 14q-6 20 -53 37.5t-85 19.5v-222q240 -48 240 -183q0 -49 -21 -85t-56.5 -55.5t-75.5 -29t-87 -10.5v-109h-60v109q-39 0 -76 7t-74.5 23t-60 48t-22.5 76q0 35 17.5 55.5 t51.5 20.5q22 0 41.5 -15t19.5 -40q0 -19 -17 -37t-51 -18q8 -11 16.5 -19.5t19 -15.5t18 -11.5t21 -8.5t19.5 -6t21 -4t18.5 -2.5t20 -1.5t17.5 -1z" />
<glyph unicode="%" horiz-adv-x="833" d="M649 620l-416 -635h-49l416 635h49zM471 174q0 81 41.5 135.5t118.5 54.5t118.5 -54.5t41.5 -135.5t-41.5 -135t-118.5 -54t-118.5 54t-41.5 135zM545 174q0 -153 86 -153t86 153q0 154 -86 154t-86 -154zM42 430q0 81 41.5 135.5t118.5 54.5t118.5 -54.5t41.5 -135.5 t-41.5 -135t-118.5 -54t-118.5 54t-41.5 135zM116 430q0 -153 86 -153t86 153q0 154 -86 154t-86 -154z" />
<glyph unicode="&#x26;" horiz-adv-x="833" d="M143 194q0 -70 43 -110t113 -40q68 0 127 40q-85 94 -175 247q-51 -27 -79.5 -58t-28.5 -79zM410 553q0 32 -19 54t-49 22q-36 0 -55.5 -27.5t-19.5 -68.5q0 -46 42 -108q31 19 49.5 33t35 40t16.5 55zM493 398h292v-52h-29q-31 0 -47 -10t-39 -42l-134 -186 q22 -32 46 -48t59 -16t57.5 26t29 57.5t6.5 68.5h52q0 -100 -38.5 -158t-133.5 -58q-77 0 -144 59q-74 -59 -194 -59q-101 0 -165.5 52t-64.5 151q0 29 9 54t18.5 41t33.5 35t35 26.5t43.5 26t40.5 23.5q-44 64 -44 134q0 72 44.5 116t116.5 44q60 0 100.5 -38t40.5 -97 q0 -91 -145 -179q7 -10 24 -38l25 -41l25 -36q16 -24 27.5 -39.5t27.5 -34.5l31 -34l35 44q60 77 60 105q0 30 -17.5 40.5t-49.5 10.5h-34v52z" />
<glyph unicode="'" horiz-adv-x="222" d="M142 602l-16 -204q0 -31 -15 -31q-4 0 -7 2t-4.5 6.5t-2 8t-1 8.5t-0.5 6l-16 204q0 4 -0.5 15t-0.5 18q0 48 32 48t32 -48q0 -25 -1 -33z" />
<glyph unicode="(" horiz-adv-x="333" d="M309 683v-36q-201 -110 -201 -404q0 -295 201 -399v-36q-136 49 -205.5 167.5t-69.5 270.5q0 151 69.5 269.5t205.5 167.5z" />
<glyph unicode=")" horiz-adv-x="333" d="M24 -192v36q201 110 201 404q0 295 -201 399v36q136 -49 205.5 -167.5t69.5 -270.5q0 -151 -69.5 -269.5t-205.5 -167.5z" />
<glyph unicode="*" horiz-adv-x="500" d="M249 311q-34 0 -34 43q0 16 9.5 43.5t10.5 31.5q7 47 7 55q-28 -15 -38 -25q-6 -6 -23.5 -26.5t-32 -32.5t-27.5 -12q-20 0 -30 10t-10 25q0 23 32 38q12 5 41.5 10t38.5 7q30 6 40 20q-20 12 -31 16q-14 5 -48 10t-50 12q-22 10 -22 29q0 18 10 29.5t28 11.5 q15 0 32 -15t35.5 -36.5t26.5 -28.5q13 -9 26 -13q0 36 -1 40q-4 14 -11 35t-11 34t-4 21q0 40 36 40t36 -40q0 -7 -4 -21l-11 -34q-6 -20 -10 -35q-2 -7 -2 -40q13 4 26 13q8 7 26.5 28.5t36 36.5t31.5 15q19 0 29 -11.5t10 -29.5t-23 -29q-15 -7 -49.5 -12t-48.5 -10 q-11 -4 -31 -16q10 -13 40 -20q9 -2 39 -7t42 -10q32 -15 32 -38q0 -15 -10 -25t-30 -10q-13 0 -27.5 12t-32.5 33t-23 26q-12 10 -39 25q0 -8 7 -55q0 -1 10 -30t10 -45q0 -43 -34 -43z" />
<glyph unicode="+" horiz-adv-x="600" d="M273 261v207h54v-207h207v-54h-207v-207h-54v207h-207v54h207z" />
<glyph unicode="," horiz-adv-x="305" d="M82 -144v37q32 2 62.5 28t33.5 56q1 15 0 29q-23 -13 -40 -13q-53 0 -53 50q0 25 17 39.5t44 14.5q37 0 56.5 -26.5t19.5 -66.5q0 -49 -35.5 -93t-104.5 -55z" />
<glyph unicode="-" horiz-adv-x="305" d="M282 198h-259v72h259v-72z" />
<glyph unicode="." horiz-adv-x="305" d="M152 97q25 0 40.5 -16t15.5 -40t-15.5 -40t-40.5 -16t-40.5 16t-15.5 40t15.5 40t40.5 16z" />
<glyph unicode="/" horiz-adv-x="278" d="M1 -20l221 703h55l-221 -703h-55z" />
<glyph unicode="0" d="M305 570q-171 0 -171 -268q0 -267 171 -267t171 267q0 268 -171 268zM305 620q91 0 154 -45.5t90 -115t27 -157.5q0 -65 -16 -121t-48 -100.5t-85 -70t-122 -25.5t-122 25.5t-85 70t-48 100.5t-16 121q0 88 27 157.5t90 115t154 45.5z" />
<glyph unicode="1" d="M493 0h-375v50h105q24 0 32 10.5t8 35.5v370h-143v50q151 0 182 104h52v-524q0 -25 8 -35.5t32 -10.5h99v-50z" />
<glyph unicode="2" d="M500 197h47q0 -45 -6.5 -80t-22.5 -66.5t-48.5 -48.5t-80.5 -17q-47 0 -129 41q-84 40 -110 40t-40 -21.5t-14 -49.5h-49q0 73 21 125.5t55 80.5t75 47.5t81.5 34t74.5 31.5t55 48.5t21 77.5q0 60 -44 95t-105 35q-134 0 -158 -90q69 0 69 -60q0 -26 -17.5 -41t-43.5 -15 q-35 0 -52 23.5t-17 59.5q0 62 40.5 103t92.5 55.5t112 14.5q94 0 158.5 -50.5t64.5 -142.5q0 -57 -27 -96.5t-68 -58t-91 -35t-94.5 -29t-81 -39.5t-48.5 -67q33 20 57 20q21 0 111 -26q92 -26 129 -26q83 0 83 127z" />
<glyph unicode="3" d="M238 296v50h31q165 0 165 105q0 59 -37 89t-96 30q-96 0 -159 -49q50 -6 50 -57q0 -25 -16.5 -42t-41.5 -17q-62 0 -62 74q0 37 25 65.5t63.5 44t76 23.5t70.5 8q41 0 79.5 -8.5t72.5 -26.5t54.5 -51t20.5 -77q0 -59 -48 -96q-47 -36 -92 -36h-2v-2q158 -30 158 -157 q0 -181 -281 -181q-37 0 -74.5 9t-71.5 26.5t-55.5 48.5t-21.5 71q0 33 19 53t52 20q27 0 43 -15.5t16 -42.5q0 -25 -19.5 -38.5t-45.5 -13.5q10 -33 57 -50.5t90 -17.5q32 0 57 2.5t51.5 11t44 22.5t28.5 38.5t11 58.5q0 73 -47 100.5t-128 27.5h-37z" />
<glyph unicode="4" d="M349 179h-326v48l351 393h66v-391h125v-50h-125v-83q0 -25 8 -35.5t32 -10.5h85v-50h-347v50h91q24 0 32 10.5t8 35.5v83zM349 512l-252 -283h252v283z" />
<glyph unicode="5" d="M79 301l25 319q96 -29 191 -29q137 0 225 29q-4 -33 -31 -57t-66 -35.5t-74 -16.5t-66 -5q-75 0 -128 14l-13 -144q70 37 174 37q105 0 168.5 -56t63.5 -159q0 -56 -23 -98.5t-62.5 -67t-86.5 -36t-101 -11.5q-51 0 -99.5 13.5t-87.5 49.5t-39 88q0 32 18 54t50 22 q29 0 45.5 -14.5t16.5 -42.5q0 -26 -19 -41q-19 -14 -44 -14h-3q44 -65 144 -65q191 0 191 168q0 75 -45.5 117.5t-121.5 42.5q-46 0 -92.5 -18t-63.5 -44h-46z" />
<glyph unicode="6" d="M310 336q-71 0 -110 -41.5t-39 -109.5t39 -109t110 -41t110 41t39 109t-39 109.5t-110 41.5zM345 570q-56 0 -95.5 -20.5t-60 -58.5t-29 -80.5t-9.5 -96.5q76 72 173 72q103 0 169 -51t66 -150t-65.5 -149.5t-169.5 -50.5q-74 0 -128.5 22.5t-85 63.5t-45 91.5 t-14.5 112.5q0 73 16.5 134t50.5 109t91 75t133 27q41 0 83 -12.5t75 -43.5t33 -73q0 -30 -17.5 -47t-47.5 -17q-23 0 -39 16t-16 39q0 21 11 36.5t30 18.5q-37 33 -109 33z" />
<glyph unicode="7" d="M117 605v-75h2q34 40 66.5 57.5t81.5 17.5q39 0 105 -22q61 -23 89 -23q23 0 41 11.5t22 33.5h47q0 -39 -23 -84.5t-56 -90.5l-67 -94q-33 -49 -56 -108.5t-23 -118.5v-109h-100v96q0 51 15.5 101t46 97t56 79.5t65.5 77.5t54 62v2q-37 -19 -98 -19q-33 0 -83 12t-71 12 q-31 0 -53 -10t-33.5 -24t-18 -38.5t-8 -45t-1.5 -51.5h-50v254h50z" />
<glyph unicode="8" d="M482 146q0 27 -12.5 43t-38.5 32q-25 15 -87.5 37t-77.5 22q-10 0 -30 -6t-45.5 -18.5t-43.5 -38t-18 -59.5q0 -123 173 -123q180 0 180 111zM350 350q31 4 70 39t39 73q0 56 -40.5 82t-107.5 26q-74 0 -115.5 -28.5t-41.5 -75.5q0 -37 19.5 -55t59.5 -31q90 -30 117 -30 zM544 468q0 -96 -131 -138v-1q82 -31 118 -66t36 -105q0 -42 -17.5 -74t-44.5 -50t-63.5 -29.5t-69 -15.5t-67.5 -4q-44 0 -85.5 7t-83 23.5t-67 50t-25.5 79.5q0 116 146 157v2q-59 22 -90 55t-31 96q0 70 61 117.5t176 47.5q114 0 176 -45.5t62 -106.5z" />
<glyph unicode="9" d="M300 269q71 0 110 41.5t39 109.5t-39 109t-110 41t-110 -41t-39 -109t39 -109.5t110 -41.5zM265 35q56 0 95.5 20.5t60 58.5t29 80.5t9.5 96.5q-76 -72 -173 -72q-103 0 -169 51t-66 150t65.5 149.5t169.5 50.5q74 0 128.5 -22.5t85 -63.5t45 -91.5t14.5 -112.5 q0 -73 -16.5 -134t-50.5 -109t-91 -75t-133 -27q-41 0 -83 12.5t-75 43.5t-33 73q0 30 17.5 47t47.5 17q23 0 39 -16t16 -39q0 -21 -11 -36.5t-30 -18.5q37 -33 109 -33z" />
<glyph unicode=":" horiz-adv-x="305" d="M152 442q25 0 40.5 -16t15.5 -40t-15.5 -40t-40.5 -16t-40.5 16t-15.5 40t15.5 40t40.5 16zM152 97q25 0 40.5 -16t15.5 -40t-15.5 -40t-40.5 -16t-40.5 16t-15.5 40t15.5 40t40.5 16z" />
<glyph unicode=";" horiz-adv-x="305" d="M82 -144v37q32 2 62.5 28t33.5 56q1 15 0 29q-23 -13 -40 -13q-53 0 -53 50q0 25 17 39.5t44 14.5q37 0 56.5 -26.5t19.5 -66.5q0 -49 -35.5 -93t-104.5 -55zM153 442q25 0 40.5 -16t15.5 -40t-15.5 -40t-40.5 -16t-40.5 16t-15.5 40t15.5 40t40.5 16z" />
<glyph unicode="&#x3c;" horiz-adv-x="600" d="M554 35v-62l-508 232v58l508 232v-62l-436 -199z" />
<glyph unicode="=" horiz-adv-x="600" d="M534 352v-54h-468v54h468zM534 170v-54h-468v54h468z" />
<glyph unicode="&#x3e;" horiz-adv-x="600" d="M46 35l436 199l-436 199v62l508 -232v-58l-508 -232v62z" />
<glyph unicode="?" horiz-adv-x="500" d="M254 177h-51v40q0 40 17.5 74t42.5 59l51 48q25 23 42.5 53t17.5 64q0 55 -39.5 84.5t-95.5 29.5q-57 0 -107 -28t-50 -74q0 -12 3 -24q22 14 43 14t34.5 -14.5t13.5 -38.5q0 -26 -15 -41t-44 -15q-41 0 -62.5 30t-21.5 73q0 86 67 129t157 43q86 0 148 -45t62 -128 q0 -46 -22 -82.5t-53 -59.5l-63 -44q-31 -22 -53 -51t-22 -65v-31zM230 97q25 0 40.5 -16t15.5 -40t-15.5 -40t-40.5 -16t-40.5 16t-15.5 40t15.5 40t40.5 16z" />
<glyph unicode="@" horiz-adv-x="800" d="M515 417q0 25 -11.5 40t-33.5 15q-47 0 -97.5 -58t-50.5 -148q0 -85 70 -85q39 0 81 74.5t42 161.5zM530 458l11 41h71l-69 -264q-1 -8 -3 -22t8.5 -27.5t33.5 -13.5q64 0 103.5 67.5t39.5 142.5q0 61 -35 123t-108 107t-166 45q-131 0 -216 -93.5t-85 -258.5 q0 -115 87 -202t224 -87q63 0 108.5 12t99.5 36l14 -27q-134 -57 -221 -57q-98 0 -176.5 33t-124 84.5t-69.5 108t-24 110.5q0 161 112 264t271 103q146 0 245.5 -86t99.5 -214q0 -55 -22 -109.5t-68 -94t-105 -39.5q-32 0 -55 16t-31.5 31.5t-7.5 24.5h-2q-26 -37 -52 -52 q-30 -18 -69 -19q-14 -1 -28 3t-32 15t-29.5 39t-11.5 69q0 29 13 68t37 79.5t65.5 68.5t91.5 28q23 0 39 -10t20.5 -16.5t15.5 -26.5z" />
<glyph unicode="A" horiz-adv-x="778" d="M309 0h-290v52h41q31 0 46 14t28 46l214 556h82l219 -566q19 -50 71 -50h38v-52h-317v52h61q52 0 52 23q0 11 -22 66l-30 81h-258l-31 -91q-17 -51 -17 -56q0 -14 11 -18.5t47 -4.5h55v-52zM481 274l-110 285l-108 -285h218z" />
<glyph unicode="B" horiz-adv-x="722" d="M233 611v-240h132q84 0 131.5 30.5t47.5 88.5q0 60 -40.5 90.5t-138.5 30.5h-132zM16 0v52h68q52 0 52 52v455q0 52 -46 52h-74v52h398q101 0 164 -42t63 -121q0 -124 -163 -151v-2q187 -24 187 -171q0 -176 -306 -176h-343zM233 319v-267h143q86 0 134 28.5t48 104.5 t-48 105t-134 29h-143z" />
<glyph unicode="C" horiz-adv-x="667" d="M629 668v-263h-52q-11 104 -69 164t-142 60q-120 0 -174.5 -80t-54.5 -218q0 -60 12.5 -111.5t38.5 -94t71.5 -67t106.5 -24.5q93 0 145.5 56t61.5 150h64q-8 -132 -84.5 -196t-206.5 -64q-107 0 -180 49.5t-104.5 126.5t-31.5 175q0 158 83.5 255t242.5 97 q109 0 200 -79l26 64h47z" />
<glyph unicode="D" horiz-adv-x="778" d="M16 611v52h370q166 0 263.5 -79t97.5 -253q0 -85 -27.5 -150t-75.5 -104t-108.5 -58t-131.5 -19h-390v52h74q45 0 45 51v456q0 52 -46 52h-71zM230 611v-559h146q135 0 199.5 67.5t64.5 211.5q0 145 -67 212.5t-213 67.5h-130z" />
<glyph unicode="E" horiz-adv-x="722" d="M657 0h-641v52h74q45 0 45 51v456q0 52 -46 52h-70v52h638v-250h-52q-2 44 -5 69t-12 53.5t-26 42.5t-46.5 23.5t-72.5 9.5h-211v-240h83q58 0 74 24t19 107h52v-326h-52q-3 92 -19 117.5t-74 25.5h-83v-267h211q44 0 73 10t46 24.5t26 45t12 59t5 78.5h52v-269z" />
<glyph unicode="F" horiz-adv-x="667" d="M236 611v-240h66q58 0 75 24t20 106h52v-324h-52q-3 90 -19.5 116t-75.5 26h-66v-216q0 -51 45 -51h77v-52h-340v52h76q45 0 45 51v456q0 52 -46 52h-74v52h620v-261h-52q0 123 -37 166t-129 43h-185z" />
<glyph unicode="G" horiz-adv-x="778" d="M629 668v-249h-52q-58 210 -223 210q-66 0 -111.5 -23.5t-70.5 -69t-35.5 -101.5t-10.5 -131q0 -119 62 -194.5t158 -75.5q82 0 142.5 39t60.5 85v78q0 52 -46 52h-82v52h338v-52h-67q-46 0 -46 -52v-241h-52l-36 61q-40 -36 -101.5 -56t-110.5 -20q-146 0 -236.5 90.5 t-90.5 260.5q0 157 90 254.5t225 97.5q137 0 217 -86l32 71h46z" />
<glyph unicode="H" horiz-adv-x="833" d="M237 362h358v197q0 52 -46 52h-76v52h340v-52h-75q-46 0 -46 -52v-456q0 -51 45 -51h76v-52h-340v52h77q45 0 45 51v207h-358v-207q0 -51 45 -51h77v-52h-340v52h76q45 0 45 51v456q0 52 -46 52h-75v52h340v-52h-76q-46 0 -46 -52v-197z" />
<glyph unicode="I" horiz-adv-x="389" d="M365 0h-340v52h76q45 0 45 51v456q0 52 -46 52h-75v52h340v-52h-76q-46 0 -46 -52v-456q0 -51 45 -51h77v-52z" />
<glyph unicode="J" horiz-adv-x="556" d="M192 663h343v-52h-73q-46 0 -46 -52v-368q0 -111 -53 -161t-157 -50q-88 0 -139.5 45t-51.5 99q0 36 19 60t53 24q32 0 50 -17t18 -49q0 -29 -18.5 -44t-49.5 -15q13 -27 44 -39t61 -12q127 0 127 122v405q0 52 -46 52h-81v52z" />
<glyph unicode="K" horiz-adv-x="833" d="M357 0h-335v52h75q45 0 45 51v456q0 52 -46 52h-74v52h333v-52h-70q-46 0 -46 -52v-248l284 257q15 12 15 24q0 19 -38 19h-64v52h338v-52h-44q-43 0 -77.5 -19.5t-75.5 -57.5l-170 -154l275 -288q38 -40 85 -40h44v-52h-364v52h74q43 0 43 22q0 5 -3.5 10.5t-14.5 16.5 l-17 17l-189 204l-101 -91v-128q0 -51 45 -51h73v-52z" />
<glyph unicode="L" horiz-adv-x="667" d="M637 0h-621v52h78q45 0 45 51v456q0 52 -46 52h-75v52h340v-52h-76q-46 0 -46 -52v-507h189q91 0 125.5 44.5t34.5 176.5h52v-273z" />
<glyph unicode="M" horiz-adv-x="944" d="M711 576l-225 -576h-59l-225 598h-2v-482q0 -35 11 -49.5t37 -14.5h70v-52h-301v52h71q26 0 37 14.5t11 49.5v438q0 31 -10.5 44t-37.5 13h-69v52h254l200 -524l210 524h244v-52h-36q-47 0 -64 -11t-17 -47v-437q0 -35 11 -49.5t37 -14.5h69v-52h-331v52h69q48 0 48 48 v476h-2z" />
<glyph unicode="N" horiz-adv-x="833" d="M616 -5l-411 584h-2v-476q0 -51 45 -51h79v-52h-310v52h77q45 0 45 51v456q0 52 -46 52h-76v52h242l373 -535h2v431q0 52 -46 52h-78v52h306v-52h-72q-46 0 -46 -52v-564h-82z" />
<glyph unicode="O" horiz-adv-x="778" d="M389 683q88 0 158.5 -30t114 -80.5t66 -112t22.5 -129.5t-22.5 -129.5t-66 -111.5t-114 -80t-158.5 -30t-158.5 30t-114 80t-66 111.5t-22.5 129.5t22.5 129.5t66 112t114 80.5t158.5 30zM389 629q-65 0 -115.5 -25t-80 -67.5t-44 -94.5t-14.5 -111t14.5 -111t44 -94.5 t80 -67t115.5 -24.5t115.5 24.5t80 67t44 94.5t14.5 111t-14.5 111t-44 94.5t-80 67.5t-115.5 25z" />
<glyph unicode="P" horiz-adv-x="667" d="M361 0h-343v52h78q45 0 45 51v456q0 52 -46 52h-77v52h356q129 0 201.5 -41t72.5 -141q0 -92 -65.5 -137t-166.5 -45h-178v-185q0 -62 64 -62h59v-52zM238 611v-260h145q158 0 158 130t-158 130h-145z" />
<glyph unicode="Q" horiz-adv-x="833" d="M787 111h52q-3 -73 -39.5 -126.5t-105.5 -53.5q-46 0 -74 16.5t-66 55.5q-61 -23 -138 -23q-88 0 -158.5 30t-114 80t-66 111.5t-22.5 129.5t22.5 129.5t66 112t114 80.5t158.5 30t158.5 -30t114 -80.5t66 -112t22.5 -129.5q0 -84 -36 -160.5t-106 -125.5q39 -43 72 -43 q37 0 57.5 34.5t22.5 74.5zM670 333q0 59 -14.5 111t-44 94.5t-80 67.5t-115.5 25t-115.5 -25t-80 -67.5t-44 -94.5t-14.5 -111q0 -85 28.5 -155.5t86.5 -107.5l2 2q-18 29 -18 54q0 48 37 78.5t87 30.5q67 0 114 -36t92 -101q79 79 79 235zM380 175q-31 0 -49 -18t-18 -48 q0 -36 26.5 -55.5t72.5 -19.5q59 0 108 19q-72 122 -140 122z" />
<glyph unicode="R" horiz-adv-x="778" d="M23 0v52h78q45 0 45 51v456q0 52 -46 52h-77v52h415q101 0 168 -41.5t67 -126.5q0 -75 -52 -111.5t-132 -44.5v-2q85 -8 115.5 -65.5t30.5 -179.5q0 -32 6.5 -42t25.5 -10q35 0 35 74v51h52q0 -105 -26.5 -145t-86.5 -40q-51 0 -77 25.5t-26 68.5q0 136 -33.5 190.5 t-131.5 54.5h-130v-216q0 -51 45 -51h78v-52h-343zM243 611v-240h161q81 0 121.5 27.5t40.5 92.5q0 68 -38.5 94t-143.5 26h-141z" />
<glyph unicode="S" d="M551 668v-254h-52q-9 102 -74.5 158.5t-150.5 56.5q-82 0 -118.5 -34t-36.5 -88q0 -38 26 -62.5t67 -36t90.5 -20t99.5 -20.5t91 -31.5t67 -58.5t26 -96q0 -100 -73 -151t-191 -51q-123 0 -209 88l-29 -73h-52v275h52q10 -98 77.5 -167t164.5 -69q71 0 122 30t51 96 q0 42 -26 68.5t-67 39t-90.5 21t-99.5 20.5t-91 31t-67 58.5t-26 97.5q0 75 58 131t176 56q130 0 210 -75l29 60h46z" />
<glyph unicode="T" horiz-adv-x="667" d="M77 402h-52v261h617v-261h-52q0 117 -33.5 163t-137.5 46h-37v-508q0 -51 45 -51h85v-52h-359v52h87q45 0 45 51v508h-44q-98 0 -131 -49t-33 -160z" />
<glyph unicode="U" horiz-adv-x="778" d="M456 611v52h303v-52h-72q-46 0 -46 -52v-304q0 -150 -60.5 -212.5t-209.5 -62.5q-108 0 -172 54.5t-64 159.5v365q0 52 -46 52h-71v52h334v-52h-74q-46 0 -46 -52v-343q0 -89 40.5 -132.5t127.5 -43.5q100 0 138.5 50.5t38.5 154.5v314q0 52 -46 52h-75z" />
<glyph unicode="V" horiz-adv-x="778" d="M24 611v52h324v-52h-70q-41 0 -41 -26q0 -4 11 -40l152 -434h2l162 441q8 19 8 31q0 14 -13.5 21t-28.5 7h-68v52h291v-52h-51q-49 0 -65 -44l-214 -572h-78l-207 560q-10 29 -25.5 42.5t-44.5 13.5h-44z" />
<glyph unicode="W" horiz-adv-x="1000" d="M355 -5h-80l-163 557q-11 36 -23.5 47.5t-48.5 11.5h-22v52h280v-52h-50q-39 0 -39 -28q0 -14 7 -41l116 -426h2l138 419q3 11 -16.5 43.5t-43.5 32.5h-49v52h289v-52h-49q-45 0 -45 -31q0 -6 18 -71l115 -391h2l119 399q13 42 13 62q0 14 -7 21.5t-15.5 9t-23.5 1.5h-52 v52h254v-52h-29q-48 0 -61 -42l-175 -574h-80l-134 441h-2z" />
<glyph unicode="X" horiz-adv-x="778" d="M312 0h-294v52h27q57 0 106 58l181 216l-163 215q-19 25 -30.5 37.5t-31.5 22.5t-45 10h-32v52h319v-52h-69q-25 0 -25 -19q0 -12 16 -32l121 -158l131 158q16 20 16 32q0 19 -26 19h-67v52h287v-52h-42q-25 0 -45.5 -11t-30 -21.5t-31.5 -37.5l-153 -191l186 -244 q42 -54 103 -54h39v-52h-345v52h64q36 0 36 25q0 10 -26 46l-119 152l-123 -152q-1 -1 -12 -13t-17 -21t-6 -15q0 -22 45 -22h56v-52z" />
<glyph unicode="Y" horiz-adv-x="722" d="M16 611v52h308v-52h-42q-60 0 -60 -22q0 -5 3 -11.5t9.5 -15.5t8.5 -13l132 -224l138 220q19 30 19 42q0 24 -45 24h-56v52h270v-52h-25q-24 0 -48.5 -17t-40.5 -43l-180 -292v-145q0 -35 19 -48.5t57 -13.5h56v-52h-361v52h56q38 0 57 13.5t19 48.5v145l-194 311 q-26 41 -74 41h-26z" />
<glyph unicode="Z" d="M103 402h-52v261h526v-52l-428 -559h203q48 0 77 7.5t52.5 32t33.5 71t10 122.5h52v-285h-544v52l430 559h-211q-60 0 -87.5 -14.5t-42 -57.5t-19.5 -137z" />
<glyph unicode="[" horiz-adv-x="333" d="M303 -174h-221v837h221v-44h-147v-749h147v-44z" />
<glyph unicode="\" horiz-adv-x="278" d="M56 683l221 -703h-55l-221 703h55z" />
<glyph unicode="]" horiz-adv-x="333" d="M251 -174h-221v44h147v749h-147v44h221v-837z" />
<glyph unicode="^" horiz-adv-x="600" d="M153 240h-62l183 365h52l183 -365h-62l-147 295z" />
<glyph unicode="_" horiz-adv-x="500" d="M0 -75h500v-50h-500v50z" />
<glyph unicode="`" horiz-adv-x="333" d="M235 536h-46l-139 87q-27 17 -35.5 26t-8.5 24q0 14 11.5 26t25.5 12q7 0 13 -1.5t10 -3.5t10 -8l10 -8l11.5 -12t12.5 -14z" />
<glyph unicode="a" horiz-adv-x="556" d="M341 163v92q-25 -14 -77.5 -33t-70.5 -27q-41 -17 -58.5 -35.5t-17.5 -44.5q0 -39 20.5 -61t58.5 -22q51 0 98 40.5t47 90.5zM426 319v-234q0 -53 26 -53q47 0 47 85v42h47v-29q0 -78 -27 -111.5t-85 -33.5q-75 0 -88 78q-71 -78 -177 -78q-65 0 -106 31t-41 94 q0 37 18.5 63t52 41.5t67.5 25.5l76 22q42 12 67 24q38 18 38 64q0 45 -24.5 65.5t-87.5 20.5q-83 0 -117 -39q46 -8 46 -51q0 -27 -18 -40t-42 -13q-25 0 -38.5 20t-13.5 51q0 40 32.5 68t74 39.5t83.5 11.5q94 0 142 -36t48 -128z" />
<glyph unicode="b" horiz-adv-x="556" d="M143 234q0 -50 10.5 -90.5t42 -71.5t81.5 -31t81.5 31t42 71.5t10.5 90.5t-10.5 90.5t-42 71.5t-81.5 31t-81.5 -31t-42 -71.5t-10.5 -90.5zM58 -5v575q0 46 -46 46h-37v47h168v-272h2q49 92 151 92q101 0 155.5 -70.5t54.5 -178.5t-54.5 -178.5t-155.5 -70.5 q-109 0 -161 95l-33 -85h-44z" />
<glyph unicode="c" horiz-adv-x="500" d="M408 172h58q-19 -187 -228 -187q-97 0 -158.5 64.5t-61.5 184.5q0 110 70.5 179.5t177.5 69.5q48 0 92.5 -15t77.5 -50.5t33 -84.5q0 -31 -17 -50t-46 -19q-19 0 -34 14t-15 33q0 49 51 57q-11 34 -49 51t-78 17q-60 0 -99.5 -32.5t-54 -75.5t-14.5 -94q0 -50 14 -93.5 t49 -76t86 -32.5q59 0 96.5 37.5t49.5 102.5z" />
<glyph unicode="d" d="M413 0v90h-2q-29 -54 -66 -79.5t-100 -25.5q-105 0 -160.5 74t-55.5 175t55.5 175t160.5 74q49 0 95 -26.5t71 -72.5h2v175q0 57 -46 57h-52v47h183v-580q0 -36 37 -36h58v-47h-180zM267 427q-72 0 -107.5 -55.5t-35.5 -137.5q0 -89 32.5 -141t99.5 -52q79 0 116.5 55 t37.5 138q0 82 -35.5 137.5t-107.5 55.5z" />
<glyph unicode="e" horiz-adv-x="500" d="M478 228h-361q0 -42 5.5 -74t20 -61.5t43.5 -45t71 -15.5q118 0 150 120h58q-34 -167 -209 -167q-112 0 -173 63.5t-61 185.5t61 185.5t173 63.5q206 0 222 -255zM117 275h266q0 70 -32.5 115.5t-97.5 45.5q-66 0 -101 -45.5t-35 -115.5z" />
<glyph unicode="f" horiz-adv-x="389" d="M322 421h-111v-328q0 -22 16 -34t41 -12h50v-47h-299v47h67q24 0 32 10.5t8 35.5v328h-107v47h107v68q0 74 45.5 110.5t109.5 36.5q24 0 47.5 -4.5t47 -15.5t38 -33t14.5 -52q0 -27 -17 -42t-43 -15q-52 0 -52 49q0 17 11.5 27t28.5 12q-19 27 -72 27q-31 0 -52 -25 t-21 -63v-80h111v-47z" />
<glyph unicode="g" horiz-adv-x="667" d="M388 -18h-153q-47 0 -83 -19.5t-36 -50.5q0 -45 50.5 -61t139.5 -16q78 0 130 19.5t52 54.5q0 73 -100 73zM293 436q-61 0 -91 -35t-30 -96t30 -95.5t91 -34.5t91 34.5t30 95.5t-30 96t-91 35zM191 56h165q109 0 157.5 -31t48.5 -94q0 -70 -68.5 -106.5t-198.5 -36.5 q-253 0 -253 116q0 43 31 64.5t74 23.5v2q-36 0 -61.5 22.5t-25.5 58.5t26 63t62 34q-71 40 -71 139q0 86 64 129t154 43q89 0 162 -57q46 57 102 57q42 0 69 -23.5t27 -65.5q0 -64 -59 -64q-21 0 -33.5 13.5t-12.5 34.5q0 42 48 42q-10 16 -43 16q-19 0 -40 -12t-34 -28 q28 -52 28 -107q0 -63 -59 -112t-153 -49q-49 0 -80 10l-31 9q-20 0 -36 -15.5t-16 -34.5q0 -20 16.5 -30.5t40.5 -10.5z" />
<glyph unicode="h" horiz-adv-x="667" d="M209 663v-275h2q64 95 176 95q77 0 119 -46.5t42 -126.5v-217q0 -25 8 -35.5t32 -10.5h60v-47h-280v47h55q24 0 32 10.5t8 35.5v224q0 54 -24 82t-79 28q-68 0 -109.5 -46.5t-41.5 -109.5v-178q0 -25 8 -35.5t32 -10.5h61v-47h-291v47h65q24 0 32 10.5t8 35.5v477 q0 25 -8 35.5t-32 10.5h-65v47h190z" />
<glyph unicode="i" horiz-adv-x="333" d="M209 468v-375q0 -25 8 -35.5t32 -10.5h64v-47h-294v47h65q24 0 32 10.5t8 35.5v282q0 25 -8 35.5t-32 10.5h-65v47h190zM207 618q0 -22 -16 -38t-38 -16q-23 0 -38.5 16t-15.5 38t16 38t38 16t38 -16t16 -38z" />
<glyph unicode="j" horiz-adv-x="333" d="M43 468h190v-518q0 -51 -16.5 -85.5t-44.5 -50t-52 -21t-52 -5.5q-45 0 -83.5 25.5t-38.5 71.5q0 31 13.5 51t38.5 20q24 0 42 -13t18 -40q0 -43 -46 -51q12 -17 59 -17t62 26.5t15 94.5v419q0 25 -8 35.5t-32 10.5h-65v47zM231 618q0 -22 -16 -38t-38 -16 q-23 0 -38.5 16t-15.5 38t16 38t38 16t38 -16t16 -38z" />
<glyph unicode="k" horiz-adv-x="667" d="M21 663h186v-436l183 146q20 16 20 30q0 18 -37 18h-60v47h303v-47h-27q-51 0 -93 -34l-139 -112l163 -175q49 -53 105 -53h21v-47h-294v47h55q29 0 29 18q0 7 -5 14.5t-14 16.5l-9 8l-113 124l-88 -68v-67q0 -25 8 -35.5t32 -10.5h52v-47h-278v47h51q30 0 40 10.5 t10 35.5v477q0 46 -54 46h-47v47z" />
<glyph unicode="l" horiz-adv-x="333" d="M209 663v-570q0 -25 8 -35.5t32 -10.5h64v-47h-294v47h65q24 0 32 10.5t8 35.5v477q0 21 -13 33.5t-27 12.5h-65v47h190z" />
<glyph unicode="m" horiz-adv-x="944" d="M209 468v-86h2q35 52 70.5 76.5t92.5 24.5q50 0 85 -27.5t48 -73.5q36 51 75 76t93 25q39 0 67.5 -11t44.5 -28.5t25 -47t12 -59t3 -71.5v-173q0 -25 8 -35.5t32 -10.5h58v-47h-270v47h47q24 0 32 10.5t8 35.5v244q0 44 -24 67t-65 23q-53 0 -94 -46.5t-41 -97.5v-190 q0 -25 8 -35.5t32 -10.5h46v-47h-257v47h46q24 0 32 10.5t8 35.5v232q0 47 -23.5 74.5t-66.5 27.5q-53 0 -93.5 -47.5t-40.5 -96.5v-190q0 -25 8 -35.5t32 -10.5h45v-47h-275v47h65q24 0 32 10.5t8 35.5v282q0 25 -8 35.5t-32 10.5h-65v47h190z" />
<glyph unicode="n" horiz-adv-x="667" d="M208 468v-85h2q63 100 177 100q77 0 119 -46.5t42 -126.5v-217q0 -25 8 -35.5t32 -10.5h60v-47h-280v47h55q24 0 32 10.5t8 35.5v224q0 54 -24 82t-79 28q-68 0 -109.5 -46.5t-41.5 -109.5v-178q0 -25 8 -35.5t32 -10.5h61v-47h-291v47h65q24 0 32 10.5t8 35.5v282 q0 25 -8 35.5t-32 10.5h-65v47h189z" />
<glyph unicode="o" horiz-adv-x="556" d="M278 483q119 0 188.5 -69.5t69.5 -179.5t-69.5 -179.5t-188.5 -69.5t-188.5 69.5t-69.5 179.5t69.5 179.5t188.5 69.5zM278 436q-87 0 -125 -56t-38 -146t38 -146t125 -56t125 56t38 146t-38 146t-125 56z" />
<glyph unicode="p" d="M319 41q72 0 107.5 55.5t35.5 137.5q0 93 -34 143t-99 50q-75 0 -114 -56t-39 -137q0 -82 35.5 -137.5t107.5 -55.5zM176 468v-88h2q55 103 166 103q104 0 158.5 -71.5t54.5 -175.5q0 -107 -54.5 -179t-158.5 -72q-112 0 -166 94h-2v-193q0 -51 45 -51h55v-47h-280v47h50 q45 0 45 51v483q0 52 -46 52h-49v47h180z" />
<glyph unicode="q" d="M283 427q-72 0 -107.5 -55.5t-35.5 -137.5t35.5 -137.5t107.5 -55.5t107.5 55.5t35.5 137.5t-35.5 137.5t-107.5 55.5zM426 380v88h180v-47h-49q-46 0 -46 -52v-483q0 -51 45 -51h50v-47h-280v47h55q45 0 45 51v193h-2q-54 -94 -166 -94q-104 0 -158.5 72t-54.5 179 q0 104 54.5 175.5t158.5 71.5q111 0 166 -103h2z" />
<glyph unicode="r" horiz-adv-x="500" d="M216 468v-101h2q19 51 58.5 83.5t83.5 32.5q52 0 82.5 -27.5t30.5 -78.5q0 -67 -56 -67q-22 0 -39 12.5t-17 33.5q0 52 60 52q-6 28 -58 28q-66 0 -104.5 -63.5t-38.5 -144.5v-135q0 -46 50 -46h54v-47h-294v47h65q24 0 32 10.5t8 35.5v282q0 25 -8 35.5t-32 10.5h-69v47 h190z" />
<glyph unicode="s" horiz-adv-x="500" d="M36 189h52q11 -71 62.5 -114t123.5 -43q46 0 75 21.5t29 56.5t-34.5 53.5t-84 26.5t-99 20t-84 45t-34.5 90q0 70 52.5 104t125.5 34q90 0 155 -57l18 47h45v-184h-47q-8 65 -57 106t-112 41q-95 0 -95 -80q0 -32 34.5 -49.5t84 -26t99 -20t84 -44t34.5 -86.5 q0 -73 -54.5 -109t-131.5 -36q-104 0 -170 62l-19 -52h-52v194z" />
<glyph unicode="t" horiz-adv-x="389" d="M26 421v47q33 5 56.5 23.5t35.5 49t17.5 58.5t8.5 64h52v-195h142v-47h-142v-330q0 -59 50 -59q31 0 50.5 27t19.5 71v58h47v-43q0 -79 -30 -119.5t-106 -40.5q-61 0 -88.5 33t-27.5 81v322h-85z" />
<glyph unicode="u" horiz-adv-x="667" d="M459 0v85h-2q-63 -100 -177 -100q-161 0 -161 157v233q0 25 -8 35.5t-32 10.5h-60v47h185v-317q0 -54 24 -82t79 -28q68 0 109.5 46.5t41.5 109.5v178q0 25 -8 35.5t-32 10.5h-61v47h186v-375q0 -25 8 -35.5t32 -10.5h65v-47h-189z" />
<glyph unicode="v" horiz-adv-x="556" d="M13 421v47h238v-47h-38q-43 0 -43 -17q0 -3 22 -59l96 -245h2l105 256q13 32 13 45q0 20 -56 20h-27v47h218v-47h-15q-42 0 -59 -40l-166 -386h-55l-162 389q-16 37 -58 37h-15z" />
<glyph unicode="w" horiz-adv-x="833" d="M16 421v47h227v-47h-37q-32 0 -32 -19q0 -10 9 -32l99 -267h2l107 262q-25 56 -62 56h-26v47h236v-47h-41q-36 0 -36 -18q0 -5 2 -10.5t5 -12.5l5 -13l98 -271h2l102 273q8 21 8 32q0 20 -56 20h-20v47h209v-47h-15q-45 0 -62 -47l-151 -379h-58l-117 291l-115 -291h-56 l-158 393q-13 33 -57 33h-12z" />
<glyph unicode="x" d="M265 0h-248v47h15q41 0 90 50l135 138l-126 135q-25 28 -48 39.5t-54 11.5h-12v47h266v-47h-29q-14 0 -21 -1t-12 -4.5t-5 -10.5q0 -9 13 -22l81 -89l79 86q17 18 17 28q0 13 -38 13h-31v47h238v-47h-11q-31 0 -53 -11.5t-49 -39.5l-115 -119l141 -154q46 -50 90 -50h16 v-47h-274v47h41q41 0 41 15q0 10 -24 38l-85 93l-90 -98q-24 -26 -24 -36q0 -12 49 -12h37v-47z" />
<glyph unicode="y" d="M277 468v-47h-22q-36 0 -48.5 -4t-12.5 -16q0 -10 26 -72l99 -234l117 270q7 19 7 32q0 24 -61 24h-28v47h238v-47h-28q-40 0 -68 -63l-209 -468q-20 -46 -61.5 -74t-93.5 -28q-46 0 -80 28.5t-34 73.5q0 42 19 60.5t43 18.5q22 0 38 -14t16 -38q0 -46 -60 -46 q3 -14 20 -25t39 -11q66 0 99 66l48 97l-169 370q-13 29 -29 41t-43 12h-21v47h259z" />
<glyph unicode="z" horiz-adv-x="500" d="M468 0h-436v47l325 374h-165q-53 0 -73 -33.5t-23 -114.5h-47v195h412v-47l-328 -374h170q71 0 92 32t26 132h47v-211z" />
<glyph unicode="{" horiz-adv-x="333" d="M318 -172v-20q-46 0 -78 5.5t-60 20.5t-42 44.5t-14 74.5v175q0 52 -22.5 78t-87.5 40q64 14 87 40.5t23 78.5v174q0 85 49 114.5t145 29.5v-20q-67 -13 -93.5 -43t-26.5 -85v-155q0 -60 -24 -90t-96 -43v-2q72 -13 96 -42.5t24 -90.5v-156q0 -56 26.5 -86t93.5 -42z" />
<glyph unicode="|" horiz-adv-x="222" d="M84 750h54v-1000h-54v1000z" />
<glyph unicode="}" horiz-adv-x="333" d="M135 -44v156q0 61 24 90.5t96 42.5v2q-72 13 -96 43t-24 90v155q0 55 -26.5 85t-93.5 43v20q96 0 145 -29.5t49 -114.5v-174q0 -52 23 -78.5t87 -40.5q-65 -14 -87.5 -40t-22.5 -78v-175q0 -45 -14 -74.5t-42 -44.5t-60 -20.5t-78 -5.5v20q67 12 93.5 42t26.5 86z" />
<glyph unicode="~" horiz-adv-x="600" d="M495 300l36 -42q-20 -27 -33 -42t-38 -29.5t-54 -14.5q-42 0 -102 33q-62 35 -115 35q-51 0 -84 -72l-36 42q45 86 125 86q39 0 111 -32l21 -10q15 -6 24 -10l20 -8q11 -4 20 -6t17 -2q19 0 36.5 12t27 24.5t24.5 35.5z" />
<glyph unicode="&#xa1;" horiz-adv-x="333" d="M167 482q25 0 40.5 -16t15.5 -40t-15.5 -40t-40.5 -16t-40.5 16t-15.5 40t15.5 40t40.5 16zM148 293h42q0 -8 1 -24t1 -24q3 -55 11 -148l14 -161q6 -67 6 -74q0 -31 -13 -52.5t-41 -21.5t-41 21.5t-13 52.5q0 7 6 74l14 161q8 93 11 148q0 8 1 24t1 24z" />
<glyph unicode="&#xa2;" d="M470 172h58q-24 -187 -215 -187q-60 0 -103 20l-55 -107h-52l66 128q-89 65 -89 209q0 109 69 178.5t179 69.5q38 0 71 -10l49 95h52l-57 -111q88 -40 88 -124q0 -31 -17 -50t-46 -19q-19 0 -34 14t-15 33q0 49 51 57q-7 31 -47 51l-184 -357q33 -30 83 -30 q122 0 148 140zM208 101l170 332q-20 3 -35 3q-86 0 -127 -56.5t-41 -146.5q0 -76 33 -132z" />
<glyph unicode="&#xa3;" d="M72 -11l-28 49q118 93 118 191q0 27 -6 45h-112v50h100q-58 82 -58 134q0 53 37.5 91.5t86.5 54.5t100 16q41 0 79.5 -6.5t77 -22.5t61.5 -47.5t23 -75.5q0 -28 -19 -45.5t-47 -17.5q-60 0 -60 56q0 26 11.5 38.5t28.5 12.5q0 23 -45.5 40.5t-80.5 17.5q-153 0 -153 -109 q0 -13 3.5 -24t15 -31t14.5 -26q7 -13 14.5 -31.5t11.5 -24.5h140v-50h-129q0 -60 -22 -97.5t-67 -76.5v-2q52 24 87 24q38 0 100 -30q60 -31 88 -31q78 0 78 131h47q0 -207 -138 -207q-37 0 -113 31q-78 30 -117 30q-65 0 -127 -57z" />
<glyph unicode="&#xa4;" d="M553 560l-56 -57q56 -59 56 -153t-56 -153l56 -57l-38 -38l-56 55q-65 -55 -154 -55t-154 55l-56 -55l-38 38l56 57q-56 59 -56 153t56 153l-56 57l38 38l56 -55q65 55 154 55t154 -55l56 55zM305 548q-80 0 -137 -58t-57 -140t57 -140t137 -58t137 58t57 140t-57 140 t-137 58z" />
<glyph unicode="&#xa5;" d="M484 246h-133v-150q0 -25 8 -35.5t32 -10.5h79v-50h-329v50h79q24 0 32 10.5t8 35.5v150h-135v50h100l-43 69h-102v50h70l-68 101q-26 39 -65 39h-24v50h281v-50h-57q-35 0 -35 -16q0 -7 19 -39l120 -203l132 210q11 17 11 27q0 12 -12 16.5t-44 4.5h-36v50h246v-50h-27 q-41 0 -74 -52l-56 -88h69v-50h-101l-42 -69h97v-50z" />
<glyph unicode="&#xa6;" horiz-adv-x="222" d="M84 675h54v-350h-54v350zM84 175h54v-350h-54v350z" />
<glyph unicode="&#xa7;" d="M188 199l119 -44q3 -1 21 -9l34 -13q15 -6 19 -6q23 0 60.5 30t37.5 67q0 46 -41 65l-155 68q-39 17 -50 17q-26 0 -63.5 -32t-37.5 -75q0 -47 56 -68zM162 -12q27 0 45.5 -19t18.5 -46q0 -24 -14 -40t-37 -17q34 -28 104 -28q67 0 113.5 26t46.5 87q0 45 -38.5 75 t-93.5 48l-110 36q-55 19 -93.5 55t-38.5 90q0 105 113 143q-71 36 -71 117q0 83 62 125.5t148 42.5q42 0 81 -11.5t69.5 -41t30.5 -72.5q0 -31 -19 -49t-51 -18q-26 0 -41.5 15t-15.5 40q0 47 48 55q-13 16 -42.5 24t-55.5 8q-34 0 -63 -7t-53 -29t-24 -56q0 -37 27 -63.5 t68 -40.5l88 -31l87.5 -35t67.5 -51t27 -80q0 -49 -32 -84t-82 -54q81 -45 81 -129q0 -66 -36 -109.5t-87 -59.5t-116 -16q-41 0 -81.5 12t-72 42t-31.5 72q0 35 19.5 54.5t53.5 19.5z" />
<glyph unicode="&#xa8;" horiz-adv-x="333" d="M65 655q23 0 38.5 -15.5t15.5 -37.5t-15.5 -37.5t-38.5 -15.5t-38.5 15.5t-15.5 37.5t15.5 37.5t38.5 15.5zM268 655q23 0 38.5 -15.5t15.5 -37.5t-15.5 -37.5t-38.5 -15.5t-38.5 15.5t-15.5 37.5t15.5 37.5t38.5 15.5z" />
<glyph unicode="&#xa9;" horiz-adv-x="800" d="M400 -20q-143 0 -243.5 103t-100.5 248q0 146 101 249t243 103q143 0 243.5 -103t100.5 -249t-100.5 -248.5t-243.5 -102.5zM400 20q119 0 205.5 93t86.5 218t-86 218.5t-206 93.5q-119 0 -205.5 -93.5t-86.5 -218.5q0 -124 86.5 -217.5t205.5 -93.5zM555 244h16l-17 -70 q0 -11 -26 -19q-51 -18 -107 -18q-94 0 -154 50t-60 152q0 73 58 134.5t162 61.5q53 0 105 -18q22 -7 22 -21v-71h-15q-4 38 -31.5 65t-84.5 27q-71 0 -108 -47q-38 -49 -38 -130q0 -82 37 -132q39 -50 117 -50q90 0 124 86z" />
<glyph unicode="&#xaa;" horiz-adv-x="334" d="M201 428v55q-11 -7 -25 -12l-34 -12l-34 -12q-26 -10 -35.5 -21t-9.5 -27q0 -46 47 -46q34 0 62.5 22.5t28.5 52.5zM260 521v-140q0 -28 17 -28q29 0 29 47v25h32v-17q0 -47 -17.5 -67t-55.5 -20q-46 0 -61 47q-40 -47 -111 -47q-43 0 -69.5 18.5t-26.5 56.5 q0 27 20.5 45.5t45.5 26t62 17t55 17.5q21 12 21 38q0 27 -14 37.5t-55 10.5q-57 0 -76 -20q32 -5 32 -30q0 -16 -12.5 -24t-28.5 -8q-34 0 -34 42q0 35 39.5 53.5t83.5 18.5q61 0 92.5 -22t31.5 -77z" />
<glyph unicode="&#xab;" horiz-adv-x="500" d="M359 400h55q-3 -7 -23 -48l-37 -78q-18 -37 -18 -40q0 -1 18 -38l38 -80q19 -41 22 -47h-55q-2 2 -15 22l-26 39l-26 41q-14 22 -22.5 39t-8.5 23q0 13 20.5 47t46 71.5t31.5 48.5zM184 400h55q-3 -7 -23 -48l-38 -78q-17 -37 -17 -40q0 -1 18 -38l37 -80l23 -47h-55 q-2 2 -15 22l-25 39l-27 41q-14 22 -22.5 39t-8.5 23q0 13 20.5 47t46 71.5t31.5 48.5z" />
<glyph unicode="&#xac;" horiz-adv-x="600" d="M480 106v192h-414v54h468v-246h-54z" />
<glyph unicode="&#xad;" horiz-adv-x="305" d="M282 198h-259v72h259v-72z" />
<glyph unicode="&#xae;" horiz-adv-x="800" d="M236 511v13h176q50 0 84.5 -23.5t34.5 -68.5q0 -39 -22.5 -66.5t-59.5 -40.5l59 -82q50 -67 81 -86v-9h-60q-10 0 -19.5 7t-21 23t-22.5 34l-30 47q-18 30 -36 56h-53v-101q0 -34 6 -40t44 -10v-16h-161v16q40 5 45 10t5 40v245q0 37 -5 42t-45 10zM347 506v-173h48 q37 0 56 25.5t19 69.5q0 41 -22 59.5t-56 18.5h-45zM400 -20q-143 0 -243.5 103t-100.5 248q0 146 101 249t243 103q143 0 243.5 -103t100.5 -249t-100.5 -248.5t-243.5 -102.5zM400 20q119 0 205.5 93t86.5 218t-86 218.5t-206 93.5q-119 0 -205.5 -93.5t-86.5 -218.5 q0 -124 86.5 -217.5t205.5 -93.5z" />
<glyph unicode="&#xaf;" horiz-adv-x="333" d="M317 574h-317v59h317v-59z" />
<glyph unicode="&#x2c9;" horiz-adv-x="333" d="M317 574h-317v59h317v-59z" />
<glyph unicode="&#xb0;" horiz-adv-x="400" d="M200 369q45 0 74 31t29 77t-29 77t-74 31t-74 -31t-29 -77t29 -77t74 -31zM200 334q-60 0 -101.5 41.5t-41.5 101.5t41.5 101.5t101.5 41.5t101.5 -41.5t41.5 -101.5t-41.5 -101.5t-101.5 -41.5z" />
<glyph unicode="&#xb1;" horiz-adv-x="600" d="M273 306v162h54v-162h207v-54h-207v-162h-54v162h-207v54h207zM66 0v54h468v-54h-468z" />
<glyph unicode="&#xb2;" horiz-adv-x="366" d="M315 366h36q0 -65 -22 -100.5t-81 -35.5q-16 0 -30 5t-33.5 16t-23.5 13q-50 24 -75 24q-17 0 -26 -13t-9 -30h-36q0 51 18.5 86t46 50.5t60 28.5t60 21.5t46 27t18.5 47.5q0 36 -28.5 57t-68.5 21q-82 0 -97 -54q45 0 45 -36q0 -15 -11.5 -24.5t-28.5 -9.5q-45 0 -45 50 q0 40 26.5 66t61 35t75.5 9q61 0 103 -30t42 -83q0 -41 -24 -66t-60.5 -36.5t-74 -20.5t-69.5 -26.5t-42 -45.5q21 12 37 12q5 0 72 -18q60 -16 84 -16q54 0 54 76z" />
<glyph unicode="&#xb3;" horiz-adv-x="366" d="M140 423v36h20q107 0 107 57q0 33 -24 50.5t-62 17.5q-58 0 -100 -29q33 -5 33 -35q0 -14 -11 -24.5t-27 -10.5q-40 0 -40 44q0 46 51.5 68.5t106.5 22.5q59 0 103 -24t44 -74q0 -66 -92 -79v-1q39 0 71 -28t32 -68q0 -107 -183 -107q-58 0 -104 24.5t-46 74.5 q0 20 12.5 32t33.5 12q39 0 39 -35q0 -15 -13 -23t-30 -8q7 -20 37 -30.5t55 -10.5q57 0 91 16t34 61q0 71 -114 71h-24z" />
<glyph unicode="&#xb4;" horiz-adv-x="333" d="M128 536h-46l125 128q4 5 12.5 14t12.5 12l9 8q6 6 10 8t10 3.5t13 1.5q14 0 25.5 -12t11.5 -26q0 -15 -8.5 -24t-35.5 -26z" />
<glyph unicode="&#xb5;" horiz-adv-x="667" d="M648 47v-47h-189v85h-2q-63 -100 -177 -100q-44 0 -76 16v-213h-185v47h60q24 0 32 10.5t8 35.5v494q0 25 -8 35.5t-32 10.5h-60v47h185v-317q0 -54 24 -82t79 -28q68 0 109.5 46.5t41.5 109.5v178q0 25 -8 35.5t-32 10.5h-61v47h186v-375q0 -25 8 -35.5t32 -10.5h65z " />
<glyph unicode="&#x3bc;" horiz-adv-x="667" d="M648 47v-47h-189v85h-2q-63 -100 -177 -100q-44 0 -76 16v-213h-185v47h60q24 0 32 10.5t8 35.5v494q0 25 -8 35.5t-32 10.5h-60v47h185v-317q0 -54 24 -82t79 -28q68 0 109.5 46.5t41.5 109.5v178q0 25 -8 35.5t-32 10.5h-61v47h186v-375q0 -25 8 -35.5t32 -10.5h65z " />
<glyph unicode="&#xb6;" horiz-adv-x="600" d="M529 663v-22q-25 0 -55 -10.5t-30 -27.5v-802h-50v832h-59v-832h-50v451q-103 0 -154 55.5t-51 149.5t51 150t154 56h244z" />
<glyph unicode="&#xb7;" horiz-adv-x="305" d="M152 290q25 0 40.5 -16t15.5 -40t-15.5 -40t-40.5 -16t-40.5 16t-15.5 40t15.5 40t40.5 16z" />
<glyph unicode="&#x2219;" horiz-adv-x="305" d="M152 290q25 0 40.5 -16t15.5 -40t-15.5 -40t-40.5 -16t-40.5 16t-15.5 40t15.5 40t40.5 16z" />
<glyph unicode="&#xb8;" horiz-adv-x="333" d="M135 0h37l-27 -64q13 5 31 5q34 0 58.5 -17.5t24.5 -47.5q0 -44 -34.5 -66t-82.5 -22q-53 0 -93 18l14 32q27 -11 53 -11q66 0 66 39q0 16 -13.5 26t-32.5 10t-32 -5l-11 6z" />
<glyph unicode="&#xb9;" horiz-adv-x="366" d="M305 248h-244v36h41q28 0 38.5 5.5t10.5 22.5v210h-90v36q99 0 120 62h38v-302q0 -22 9 -28t32 -6h45v-36z" />
<glyph unicode="&#xba;" horiz-adv-x="334" d="M168 620q77 0 122 -42t45 -108t-45 -107.5t-122 -41.5t-122.5 41.5t-45.5 107.5t45.5 108t122.5 42zM168 353q55 0 79 32q22 30 22 77v8q0 118 -101 118q-102 0 -102 -118q0 -117 102 -117z" />
<glyph unicode="&#xbb;" horiz-adv-x="500" d="M261 400h55q6 -11 31.5 -48.5t46 -71.5t20.5 -47q0 -6 -8.5 -23t-22.5 -39l-27 -41l-25 -39q-13 -20 -15 -22h-55l23 47l37 80q18 37 18 38q0 3 -17 40l-38 78q-20 41 -23 48zM86 400h55q6 -11 31.5 -48.5t46 -71.5t20.5 -47q0 -6 -8.5 -23t-22.5 -39l-26 -41l-26 -39 q-13 -20 -15 -22h-55q3 6 22 47l38 80q18 37 18 38q0 3 -18 40l-37 78q-20 41 -23 48z" />
<glyph unicode="&#xbc;" horiz-adv-x="916" d="M239 -15l439 635h60l-439 -635h-60zM717 104h-208v32l228 236h48v-232h77v-36h-77v-43q0 -25 46 -25h31v-36h-226v36h31q50 0 50 23v45zM717 303l-158 -163h158v163zM341 248h-244v36h41q28 0 38.5 5.5t10.5 22.5v210h-90v36q99 0 120 62h38v-302q0 -22 9 -28t32 -6h45 v-36z" />
<glyph unicode="&#xbd;" horiz-adv-x="916" d="M214 -15l439 635h60l-439 -635h-60zM341 248h-244v36h41q28 0 38.5 5.5t10.5 22.5v210h-90v36q99 0 120 62h38v-302q0 -22 9 -28t32 -6h45v-36zM834 112h36q0 -65 -22 -100.5t-81 -35.5q-16 0 -30 5t-33.5 16t-23.5 13q-50 24 -75 24q-17 0 -26 -13t-9 -30h-36 q0 51 18.5 86t46 50.5t60 28.5t60 21.5t46 27t18.5 47.5q0 36 -28.5 57t-68.5 21q-82 0 -97 -54q45 0 45 -36q0 -15 -11.5 -24.5t-28.5 -9.5q-45 0 -45 50q0 40 26.5 66t61 35t75.5 9q61 0 103 -30t42 -83q0 -41 -24 -66t-60.5 -36.5t-74 -20.5t-69.5 -26.5t-42 -45.5 q21 12 37 12q4 0 72 -18q60 -16 84 -16q54 0 54 76z" />
<glyph unicode="&#xbe;" horiz-adv-x="916" d="M249 -15l439 635h60l-439 -635h-60zM179 423v36h20q107 0 107 57q0 33 -24 50.5t-62 17.5q-58 0 -100 -29q33 -5 33 -35q0 -14 -11 -24.5t-27 -10.5q-40 0 -40 44q0 46 51.5 68.5t106.5 22.5q59 0 103 -24t44 -74q0 -66 -92 -79v-1q39 0 71 -28t32 -68q0 -107 -183 -107 q-58 0 -104 24.5t-46 74.5q0 20 12.5 32t33.5 12q39 0 39 -35q0 -15 -13 -23t-30 -8q7 -20 37 -30.5t55 -10.5q57 0 91 16t34 61q0 71 -114 71h-24zM717 104h-208v32l228 236h48v-232h77v-36h-77v-43q0 -25 46 -25h31v-36h-226v36h31q50 0 50 23v45zM717 303l-158 -163h158 v163z" />
<glyph unicode="&#xbf;" horiz-adv-x="500" d="M246 294h51v-40q-1 -40 -19 -74t-43 -58l-49 -48q-25 -24 -42.5 -54t-17.5 -64q0 -55 39.5 -84.5t95.5 -29.5q57 0 107 28t50 74q0 12 -3 24q-22 -14 -43 -14t-34.5 14.5t-13.5 38.5q0 26 15 41t44 15q41 0 62.5 -30t21.5 -73q0 -86 -67 -129t-157 -43q-86 0 -148 45 t-62 128q0 46 22 82.5t53 59.5l63 45q31 21 53 50t22 65v31zM270 482q25 0 40.5 -16t15.5 -40t-15.5 -40t-40.5 -16t-40.5 16t-15.5 40t15.5 40t40.5 16z" />
<glyph unicode="&#xc0;" horiz-adv-x="778" d="M309 0h-290v52h41q31 0 46 14t28 46l214 556h82l219 -566q19 -50 71 -50h38v-52h-317v52h61q52 0 52 23q0 11 -22 66l-30 81h-258l-31 -91q-17 -51 -17 -56q0 -14 11 -18.5t47 -4.5h55v-52zM481 274l-110 285l-108 -285h218zM458 709h-46l-139 87q-27 17 -35.5 26 t-8.5 24q0 14 11.5 26t25.5 12q7 0 13 -1.5t10 -3.5t10 -7l9 -9q4 -3 12.5 -12t12.5 -14z" />
<glyph unicode="&#xc1;" horiz-adv-x="778" d="M309 0h-290v52h41q31 0 46 14t28 46l214 556h82l219 -566q19 -50 71 -50h38v-52h-317v52h61q52 0 52 23q0 11 -22 66l-30 81h-258l-31 -91q-17 -51 -17 -56q0 -14 11 -18.5t47 -4.5h55v-52zM481 274l-110 285l-108 -285h218zM351 709h-46l125 128q4 5 12.5 14l11.5 12 l10 9q6 5 10 7t10 3.5t13 1.5q14 0 25.5 -12t11.5 -26q0 -15 -8.5 -24t-35.5 -26z" />
<glyph unicode="&#xc2;" horiz-adv-x="778" d="M309 0h-290v52h41q31 0 46 14t28 46l214 556h82l219 -566q19 -50 71 -50h38v-52h-317v52h61q52 0 52 23q0 11 -22 66l-30 81h-258l-31 -91q-17 -51 -17 -56q0 -14 11 -18.5t47 -4.5h55v-52zM481 274l-110 285l-108 -285h218zM416 877l124 -169h-43l-115 103l-116 -103 h-43l124 169h69z" />
<glyph unicode="&#xc3;" horiz-adv-x="778" d="M309 0h-290v52h41q31 0 46 14t28 46l214 556h82l219 -566q19 -50 71 -50h38v-52h-317v52h61q52 0 52 23q0 11 -22 66l-30 81h-258l-31 -91q-17 -51 -17 -56q0 -14 11 -18.5t47 -4.5h55v-52zM481 274l-110 285l-108 -285h218zM519 845h34q-12 -50 -36 -78q-29 -34 -76 -34 q-31 0 -79 24q-46 24 -64 24q-17 0 -34.5 -16t-19.5 -33h-33q9 48 37.5 79t74.5 31q26 0 76 -24t69 -24q35 0 51 51z" />
<glyph unicode="&#xc4;" horiz-adv-x="778" d="M309 0h-290v52h41q31 0 46 14t28 46l214 556h82l219 -566q19 -50 71 -50h38v-52h-317v52h61q52 0 52 23q0 11 -22 66l-30 81h-258l-31 -91q-17 -51 -17 -56q0 -14 11 -18.5t47 -4.5h55v-52zM481 274l-110 285l-108 -285h218zM288 828q23 0 38.5 -15.5t15.5 -37.5 t-15.5 -37.5t-38.5 -15.5t-38.5 15.5t-15.5 37.5t15.5 37.5t38.5 15.5zM491 828q23 0 38.5 -15.5t15.5 -37.5t-15.5 -37.5t-38.5 -15.5t-38.5 15.5t-15.5 37.5t15.5 37.5t38.5 15.5z" />
<glyph unicode="&#xc5;" horiz-adv-x="778" d="M309 0h-290v52h41q31 0 46 14t28 46l214 556h82l219 -566q19 -50 71 -50h38v-52h-317v52h61q52 0 52 23q0 11 -22 66l-30 81h-258l-31 -91q-17 -51 -17 -56q0 -14 11 -18.5t47 -4.5h55v-52zM481 274l-110 285l-108 -285h218zM390 911q43 0 72.5 -30t29.5 -72t-29.5 -71.5 t-72.5 -29.5t-72.5 29.5t-29.5 71.5t29.5 72t72.5 30zM390 871q-26 0 -43.5 -18t-17.5 -44t17.5 -43.5t43.5 -17.5t43.5 17.5t17.5 43.5t-17.5 44t-43.5 18z" />
<glyph unicode="&#xc6;" horiz-adv-x="944" d="M264 322h160v294h-2zM889 0h-560v52h50q45 0 45 51v167h-186l-83 -164q-12 -24 -12 -32q0 -9 10.5 -15.5t28.5 -6.5h43v-52h-218v52q22 0 44 18t36 44l244 452q8 16 8 24q0 21 -28 21h-77v52h655v-251h-52q-2 44 -5 69.5t-12 54t-26 42.5t-46.5 23.5t-72.5 9.5h-154v-240 h49q58 0 74 24t19 107h52v-326h-52q-3 92 -19 117.5t-74 25.5h-49v-267h154q43 0 72.5 9.5t46.5 24.5t26 45t12 57t5 76h52v-264z" />
<glyph unicode="&#xc7;" horiz-adv-x="667" d="M629 668v-263h-52q-11 104 -69 164t-142 60q-120 0 -174.5 -80t-54.5 -218q0 -60 12.5 -111.5t38.5 -94t71.5 -67t106.5 -24.5q93 0 145.5 56t61.5 150h64q-8 -128 -80 -192t-194 -67l-19 -45q12 5 31 5q34 0 58.5 -17.5t24.5 -47.5q0 -44 -34.5 -66t-82.5 -22 q-53 0 -93 18l14 32q27 -11 53 -11q66 0 66 39q0 16 -13.5 26t-32.5 10t-32 -5l-11 6l34 78q-100 4 -168.5 54t-98 125.5t-29.5 170.5q0 158 83.5 255t242.5 97q109 0 200 -79l26 64h47z" />
<glyph unicode="&#xc8;" horiz-adv-x="722" d="M657 0h-641v52h74q45 0 45 51v456q0 52 -46 52h-70v52h638v-250h-52q-2 44 -5 69t-12 53.5t-26 42.5t-46.5 23.5t-72.5 9.5h-211v-240h83q58 0 74 24t19 107h52v-326h-52q-3 92 -19 117.5t-74 25.5h-83v-267h211q44 0 73 10t46 24.5t26 45t12 59t5 78.5h52v-269zM453 709 h-46l-139 87q-27 17 -35.5 26t-8.5 24q0 14 11.5 26t25.5 12q7 0 13 -1.5t10 -3.5t10 -7l10 -9l11.5 -12t12.5 -14z" />
<glyph unicode="&#xc9;" horiz-adv-x="722" d="M657 0h-641v52h74q45 0 45 51v456q0 52 -46 52h-70v52h638v-250h-52q-2 44 -5 69t-12 53.5t-26 42.5t-46.5 23.5t-72.5 9.5h-211v-240h83q58 0 74 24t19 107h52v-326h-52q-3 92 -19 117.5t-74 25.5h-83v-267h211q44 0 73 10t46 24.5t26 45t12 59t5 78.5h52v-269zM346 709 h-46l125 128q4 5 12.5 14t12.5 12l9 9q6 5 10 7t10 3.5t13 1.5q14 0 25.5 -12t11.5 -26q0 -15 -8.5 -24t-35.5 -26z" />
<glyph unicode="&#xca;" horiz-adv-x="722" d="M657 0h-641v52h74q45 0 45 51v456q0 52 -46 52h-70v52h638v-250h-52q-2 44 -5 69t-12 53.5t-26 42.5t-46.5 23.5t-72.5 9.5h-211v-240h83q58 0 74 24t19 107h52v-326h-52q-3 92 -19 117.5t-74 25.5h-83v-267h211q44 0 73 10t46 24.5t26 45t12 59t5 78.5h52v-269zM411 877 l124 -169h-43l-115 103l-116 -103h-43l124 169h69z" />
<glyph unicode="&#xcb;" horiz-adv-x="722" d="M657 0h-641v52h74q45 0 45 51v456q0 52 -46 52h-70v52h638v-250h-52q-2 44 -5 69t-12 53.5t-26 42.5t-46.5 23.5t-72.5 9.5h-211v-240h83q58 0 74 24t19 107h52v-326h-52q-3 92 -19 117.5t-74 25.5h-83v-267h211q44 0 73 10t46 24.5t26 45t12 59t5 78.5h52v-269zM283 828 q23 0 38.5 -15.5t15.5 -37.5t-15.5 -37.5t-38.5 -15.5t-38.5 15.5t-15.5 37.5t15.5 37.5t38.5 15.5zM486 828q23 0 38.5 -15.5t15.5 -37.5t-15.5 -37.5t-38.5 -15.5t-38.5 15.5t-15.5 37.5t15.5 37.5t38.5 15.5z" />
<glyph unicode="&#xcc;" horiz-adv-x="389" d="M365 0h-340v52h76q45 0 45 51v456q0 52 -46 52h-75v52h340v-52h-76q-46 0 -46 -52v-456q0 -51 45 -51h77v-52zM263 709h-46l-139 87q-27 17 -35.5 26t-8.5 24q0 14 11.5 26t25.5 12q7 0 13 -1.5t10 -3.5t10 -7l10 -9l11.5 -12t12.5 -14z" />
<glyph unicode="&#xcd;" horiz-adv-x="389" d="M365 0h-340v52h76q45 0 45 51v456q0 52 -46 52h-75v52h340v-52h-76q-46 0 -46 -52v-456q0 -51 45 -51h77v-52zM156 709h-46l125 128q4 5 12.5 14t12.5 12l9 9q6 5 10 7t10 3.5t13 1.5q14 0 25.5 -12t11.5 -26q0 -15 -8.5 -24t-35.5 -26z" />
<glyph unicode="&#xce;" horiz-adv-x="389" d="M365 0h-340v52h76q45 0 45 51v456q0 52 -46 52h-75v52h340v-52h-76q-46 0 -46 -52v-456q0 -51 45 -51h77v-52zM221 877l124 -169h-43l-115 103l-116 -103h-43l124 169h69z" />
<glyph unicode="&#xcf;" horiz-adv-x="389" d="M365 0h-340v52h76q45 0 45 51v456q0 52 -46 52h-75v52h340v-52h-76q-46 0 -46 -52v-456q0 -51 45 -51h77v-52zM93 828q23 0 38.5 -15.5t15.5 -37.5t-15.5 -37.5t-38.5 -15.5t-38.5 15.5t-15.5 37.5t15.5 37.5t38.5 15.5zM296 828q23 0 38.5 -15.5t15.5 -37.5t-15.5 -37.5 t-38.5 -15.5t-38.5 15.5t-15.5 37.5t15.5 37.5t38.5 15.5z" />
<glyph unicode="&#xd0;" horiz-adv-x="778" d="M16 310v52h117v197q0 52 -46 52h-71v52h370q166 0 263.5 -79t97.5 -253q0 -85 -27.5 -150t-75.5 -104t-108.5 -58t-131.5 -19h-390v52h74q45 0 45 51v207h-117zM394 362v-52h-164v-258h146q135 0 199.5 67.5t64.5 211.5q0 145 -67 212.5t-213 67.5h-130v-249h164z" />
<glyph unicode="&#xd1;" horiz-adv-x="833" d="M616 -5l-411 584h-2v-476q0 -51 45 -51h79v-52h-310v52h77q45 0 45 51v456q0 52 -46 52h-76v52h242l373 -535h2v431q0 52 -46 52h-78v52h306v-52h-72q-46 0 -46 -52v-564h-82zM555 845h34q-12 -50 -36 -78q-29 -34 -76 -34q-31 0 -79 24q-46 24 -64 24q-17 0 -34.5 -16 t-19.5 -33h-33q9 48 37.5 79t74.5 31q26 0 76 -24t69 -24q35 0 51 51z" />
<glyph unicode="&#xd2;" horiz-adv-x="778" d="M389 683q88 0 158.5 -30t114 -80.5t66 -112t22.5 -129.5t-22.5 -129.5t-66 -111.5t-114 -80t-158.5 -30t-158.5 30t-114 80t-66 111.5t-22.5 129.5t22.5 129.5t66 112t114 80.5t158.5 30zM389 629q-65 0 -115.5 -25t-80 -67.5t-44 -94.5t-14.5 -111t14.5 -111t44 -94.5 t80 -67t115.5 -24.5t115.5 24.5t80 67t44 94.5t14.5 111t-14.5 111t-44 94.5t-80 67.5t-115.5 25zM458 709h-46l-139 87q-27 17 -35.5 26t-8.5 24q0 14 11.5 26t25.5 12q7 0 13 -1.5t10 -3.5t10 -7l9 -9q4 -3 12.5 -12t12.5 -14z" />
<glyph unicode="&#xd3;" horiz-adv-x="778" d="M389 683q88 0 158.5 -30t114 -80.5t66 -112t22.5 -129.5t-22.5 -129.5t-66 -111.5t-114 -80t-158.5 -30t-158.5 30t-114 80t-66 111.5t-22.5 129.5t22.5 129.5t66 112t114 80.5t158.5 30zM389 629q-65 0 -115.5 -25t-80 -67.5t-44 -94.5t-14.5 -111t14.5 -111t44 -94.5 t80 -67t115.5 -24.5t115.5 24.5t80 67t44 94.5t14.5 111t-14.5 111t-44 94.5t-80 67.5t-115.5 25zM351 709h-46l125 128q4 5 12.5 14l11.5 12l10 9q6 5 10 7t10 3.5t13 1.5q14 0 25.5 -12t11.5 -26q0 -15 -8.5 -24t-35.5 -26z" />
<glyph unicode="&#xd4;" horiz-adv-x="778" d="M389 683q88 0 158.5 -30t114 -80.5t66 -112t22.5 -129.5t-22.5 -129.5t-66 -111.5t-114 -80t-158.5 -30t-158.5 30t-114 80t-66 111.5t-22.5 129.5t22.5 129.5t66 112t114 80.5t158.5 30zM389 629q-65 0 -115.5 -25t-80 -67.5t-44 -94.5t-14.5 -111t14.5 -111t44 -94.5 t80 -67t115.5 -24.5t115.5 24.5t80 67t44 94.5t14.5 111t-14.5 111t-44 94.5t-80 67.5t-115.5 25zM416 877l124 -169h-43l-115 103l-116 -103h-43l124 169h69z" />
<glyph unicode="&#xd5;" horiz-adv-x="778" d="M389 683q88 0 158.5 -30t114 -80.5t66 -112t22.5 -129.5t-22.5 -129.5t-66 -111.5t-114 -80t-158.5 -30t-158.5 30t-114 80t-66 111.5t-22.5 129.5t22.5 129.5t66 112t114 80.5t158.5 30zM389 629q-65 0 -115.5 -25t-80 -67.5t-44 -94.5t-14.5 -111t14.5 -111t44 -94.5 t80 -67t115.5 -24.5t115.5 24.5t80 67t44 94.5t14.5 111t-14.5 111t-44 94.5t-80 67.5t-115.5 25zM519 845h34q-12 -50 -36 -78q-29 -34 -76 -34q-31 0 -79 24q-46 24 -64 24q-17 0 -34.5 -16t-19.5 -33h-33q9 48 37.5 79t74.5 31q26 0 76 -24t69 -24q35 0 51 51z" />
<glyph unicode="&#xd6;" horiz-adv-x="778" d="M389 683q88 0 158.5 -30t114 -80.5t66 -112t22.5 -129.5t-22.5 -129.5t-66 -111.5t-114 -80t-158.5 -30t-158.5 30t-114 80t-66 111.5t-22.5 129.5t22.5 129.5t66 112t114 80.5t158.5 30zM389 629q-65 0 -115.5 -25t-80 -67.5t-44 -94.5t-14.5 -111t14.5 -111t44 -94.5 t80 -67t115.5 -24.5t115.5 24.5t80 67t44 94.5t14.5 111t-14.5 111t-44 94.5t-80 67.5t-115.5 25zM288 828q23 0 38.5 -15.5t15.5 -37.5t-15.5 -37.5t-38.5 -15.5t-38.5 15.5t-15.5 37.5t15.5 37.5t38.5 15.5zM491 828q23 0 38.5 -15.5t15.5 -37.5t-15.5 -37.5t-38.5 -15.5 t-38.5 15.5t-15.5 37.5t15.5 37.5t38.5 15.5z" />
<glyph unicode="&#xd7;" horiz-adv-x="600" d="M262 234l-196 196l40 38l194 -195l194 195l40 -38l-196 -196l196 -196l-38 -38l-196 195l-196 -195l-38 38z" />
<glyph unicode="&#xd8;" horiz-adv-x="778" d="M179 149l383 413q-65 67 -173 67q-65 0 -115.5 -25t-80 -67.5t-44 -94.5t-14.5 -111q0 -106 44 -182zM592 524l-384 -415q67 -75 181 -75q65 0 115.5 24.5t80 67t44 94.5t14.5 111q0 117 -51 193zM46 5l75 81q-93 97 -93 245q0 68 22.5 129.5t66 112t114 80.5t158.5 30 q133 0 223 -67l74 81l35 -34l-72 -78q101 -100 101 -254q0 -68 -22.5 -129.5t-66 -111.5t-114 -80t-158.5 -30q-139 0 -232 74l-76 -82z" />
<glyph unicode="&#xd9;" horiz-adv-x="778" d="M456 611v52h303v-52h-72q-46 0 -46 -52v-304q0 -150 -60.5 -212.5t-209.5 -62.5q-108 0 -172 54.5t-64 159.5v365q0 52 -46 52h-71v52h334v-52h-74q-46 0 -46 -52v-343q0 -89 40.5 -132.5t127.5 -43.5q100 0 138.5 50.5t38.5 154.5v314q0 52 -46 52h-75zM477 709h-46 l-139 87q-27 17 -35.5 26t-8.5 24q0 14 11.5 26t25.5 12q7 0 13 -1.5t10 -3.5t10 -7l10 -9l11.5 -12t12.5 -14z" />
<glyph unicode="&#xda;" horiz-adv-x="778" d="M456 611v52h303v-52h-72q-46 0 -46 -52v-304q0 -150 -60.5 -212.5t-209.5 -62.5q-108 0 -172 54.5t-64 159.5v365q0 52 -46 52h-71v52h334v-52h-74q-46 0 -46 -52v-343q0 -89 40.5 -132.5t127.5 -43.5q100 0 138.5 50.5t38.5 154.5v314q0 52 -46 52h-75zM370 709h-46 l125 128q4 5 12.5 14t12.5 12l9 9q6 5 10 7t10 3.5t13 1.5q14 0 25.5 -12t11.5 -26q0 -15 -8.5 -24t-35.5 -26z" />
<glyph unicode="&#xdb;" horiz-adv-x="778" d="M456 611v52h303v-52h-72q-46 0 -46 -52v-304q0 -150 -60.5 -212.5t-209.5 -62.5q-108 0 -172 54.5t-64 159.5v365q0 52 -46 52h-71v52h334v-52h-74q-46 0 -46 -52v-343q0 -89 40.5 -132.5t127.5 -43.5q100 0 138.5 50.5t38.5 154.5v314q0 52 -46 52h-75zM435 877 l124 -169h-43l-115 103l-116 -103h-43l124 169h69z" />
<glyph unicode="&#xdc;" horiz-adv-x="778" d="M456 611v52h303v-52h-72q-46 0 -46 -52v-304q0 -150 -60.5 -212.5t-209.5 -62.5q-108 0 -172 54.5t-64 159.5v365q0 52 -46 52h-71v52h334v-52h-74q-46 0 -46 -52v-343q0 -89 40.5 -132.5t127.5 -43.5q100 0 138.5 50.5t38.5 154.5v314q0 52 -46 52h-75zM307 828 q23 0 38.5 -15.5t15.5 -37.5t-15.5 -37.5t-38.5 -15.5t-38.5 15.5t-15.5 37.5t15.5 37.5t38.5 15.5zM510 828q23 0 38.5 -15.5t15.5 -37.5t-15.5 -37.5t-38.5 -15.5t-38.5 15.5t-15.5 37.5t15.5 37.5t38.5 15.5z" />
<glyph unicode="&#xdd;" horiz-adv-x="722" d="M16 611v52h308v-52h-42q-60 0 -60 -22q0 -5 3 -11.5t9.5 -15.5t8.5 -13l132 -224l138 220q19 30 19 42q0 24 -45 24h-56v52h270v-52h-25q-24 0 -48.5 -17t-40.5 -43l-180 -292v-145q0 -35 19 -48.5t57 -13.5h56v-52h-361v52h56q38 0 57 13.5t19 48.5v145l-194 311 q-26 41 -74 41h-26zM339 709h-46l125 128q4 5 12.5 14l11.5 12l10 9q6 5 10 7t10 3.5t13 1.5q14 0 25.5 -12t11.5 -26q0 -15 -8.5 -24t-35.5 -26z" />
<glyph unicode="&#xde;" horiz-adv-x="667" d="M18 663h343v-52h-77q-46 0 -46 -52v-45h172q238 0 238 -182t-238 -182h-172v-47q0 -51 45 -51h78v-52h-343v52h78q45 0 45 51v456q0 52 -46 52h-77v52zM238 462v-260h145q158 0 158 130t-158 130h-145z" />
<glyph unicode="&#xdf;" d="M208 0h-185v47h60q24 0 32 10.5t8 35.5v358q0 113 53 172.5t171 59.5q77 0 134 -37t57 -110q0 -56 -34.5 -87t-92.5 -39v-2q82 -13 129 -63.5t47 -133.5q0 -93 -46.5 -159.5t-135.5 -66.5q-71 0 -100.5 45t-29.5 109v29h56v-25q0 -111 78 -111q29 0 47.5 18t25.5 50.5 t8.5 53t1.5 50.5q0 174 -175 174h-35v47h38q49 0 86 26t37 81q0 40 -24 72t-82 32q-59 0 -94 -35.5t-35 -112.5v-488z" />
<glyph unicode="&#xe0;" horiz-adv-x="556" d="M341 163v92q-25 -14 -77.5 -33t-70.5 -27q-41 -17 -58.5 -35.5t-17.5 -44.5q0 -39 20.5 -61t58.5 -22q51 0 98 40.5t47 90.5zM426 319v-234q0 -53 26 -53q47 0 47 85v42h47v-29q0 -78 -27 -111.5t-85 -33.5q-75 0 -88 78q-71 -78 -177 -78q-65 0 -106 31t-41 94 q0 37 18.5 63t52 41.5t67.5 25.5l76 22q42 12 67 24q38 18 38 64q0 45 -24.5 65.5t-87.5 20.5q-83 0 -117 -39q46 -8 46 -51q0 -27 -18 -40t-42 -13q-25 0 -38.5 20t-13.5 51q0 40 32.5 68t74 39.5t83.5 11.5q94 0 142 -36t48 -128zM328 536h-46l-139 87q-27 17 -35.5 26 t-8.5 24q0 14 11.5 26t25.5 12q7 0 13 -1.5t10 -3.5t10 -8l9 -8q4 -3 12.5 -12t12.5 -14z" />
<glyph unicode="&#xe1;" horiz-adv-x="556" d="M341 163v92q-25 -14 -77.5 -33t-70.5 -27q-41 -17 -58.5 -35.5t-17.5 -44.5q0 -39 20.5 -61t58.5 -22q51 0 98 40.5t47 90.5zM426 319v-234q0 -53 26 -53q47 0 47 85v42h47v-29q0 -78 -27 -111.5t-85 -33.5q-75 0 -88 78q-71 -78 -177 -78q-65 0 -106 31t-41 94 q0 37 18.5 63t52 41.5t67.5 25.5l76 22q42 12 67 24q38 18 38 64q0 45 -24.5 65.5t-87.5 20.5q-83 0 -117 -39q46 -8 46 -51q0 -27 -18 -40t-42 -13q-25 0 -38.5 20t-13.5 51q0 40 32.5 68t74 39.5t83.5 11.5q94 0 142 -36t48 -128zM221 536h-46l125 128q4 5 12.5 14 l11.5 12l10 8q6 6 10 8t10 3.5t13 1.5q14 0 25.5 -12t11.5 -26q0 -15 -8.5 -24t-35.5 -26z" />
<glyph unicode="&#xe2;" horiz-adv-x="556" d="M341 163v92q-25 -14 -77.5 -33t-70.5 -27q-41 -17 -58.5 -35.5t-17.5 -44.5q0 -39 20.5 -61t58.5 -22q51 0 98 40.5t47 90.5zM426 319v-234q0 -53 26 -53q47 0 47 85v42h47v-29q0 -78 -27 -111.5t-85 -33.5q-75 0 -88 78q-71 -78 -177 -78q-65 0 -106 31t-41 94 q0 37 18.5 63t52 41.5t67.5 25.5l76 22q42 12 67 24q38 18 38 64q0 45 -24.5 65.5t-87.5 20.5q-83 0 -117 -39q46 -8 46 -51q0 -27 -18 -40t-42 -13q-25 0 -38.5 20t-13.5 51q0 40 32.5 68t74 39.5t83.5 11.5q94 0 142 -36t48 -128zM286 704l124 -169h-43l-115 103 l-116 -103h-43l124 169h69z" />
<glyph unicode="&#xe3;" horiz-adv-x="556" d="M341 163v92q-25 -14 -77.5 -33t-70.5 -27q-41 -17 -58.5 -35.5t-17.5 -44.5q0 -39 20.5 -61t58.5 -22q51 0 98 40.5t47 90.5zM426 319v-234q0 -53 26 -53q47 0 47 85v42h47v-29q0 -78 -27 -111.5t-85 -33.5q-75 0 -88 78q-71 -78 -177 -78q-65 0 -106 31t-41 94 q0 37 18.5 63t52 41.5t67.5 25.5l76 22q42 12 67 24q38 18 38 64q0 45 -24.5 65.5t-87.5 20.5q-83 0 -117 -39q46 -8 46 -51q0 -27 -18 -40t-42 -13q-25 0 -38.5 20t-13.5 51q0 40 32.5 68t74 39.5t83.5 11.5q94 0 142 -36t48 -128zM389 672h34q-12 -50 -36 -78 q-29 -34 -76 -34q-31 0 -79 24q-46 24 -64 24q-17 0 -34.5 -16t-19.5 -33h-33q9 48 37.5 79t74.5 31q26 0 76 -24t69 -24q35 0 51 51z" />
<glyph unicode="&#xe4;" horiz-adv-x="556" d="M341 163v92q-25 -14 -77.5 -33t-70.5 -27q-41 -17 -58.5 -35.5t-17.5 -44.5q0 -39 20.5 -61t58.5 -22q51 0 98 40.5t47 90.5zM426 319v-234q0 -53 26 -53q47 0 47 85v42h47v-29q0 -78 -27 -111.5t-85 -33.5q-75 0 -88 78q-71 -78 -177 -78q-65 0 -106 31t-41 94 q0 37 18.5 63t52 41.5t67.5 25.5l76 22q42 12 67 24q38 18 38 64q0 45 -24.5 65.5t-87.5 20.5q-83 0 -117 -39q46 -8 46 -51q0 -27 -18 -40t-42 -13q-25 0 -38.5 20t-13.5 51q0 40 32.5 68t74 39.5t83.5 11.5q94 0 142 -36t48 -128zM158 655q23 0 38.5 -15.5t15.5 -37.5 t-15.5 -37.5t-38.5 -15.5t-38.5 15.5t-15.5 37.5t15.5 37.5t38.5 15.5zM361 655q23 0 38.5 -15.5t15.5 -37.5t-15.5 -37.5t-38.5 -15.5t-38.5 15.5t-15.5 37.5t15.5 37.5t38.5 15.5z" />
<glyph unicode="&#xe5;" horiz-adv-x="556" d="M341 163v92q-25 -14 -77.5 -33t-70.5 -27q-41 -17 -58.5 -35.5t-17.5 -44.5q0 -39 20.5 -61t58.5 -22q51 0 98 40.5t47 90.5zM426 319v-234q0 -53 26 -53q47 0 47 85v42h47v-29q0 -78 -27 -111.5t-85 -33.5q-75 0 -88 78q-71 -78 -177 -78q-65 0 -106 31t-41 94 q0 37 18.5 63t52 41.5t67.5 25.5l76 22q42 12 67 24q38 18 38 64q0 45 -24.5 65.5t-87.5 20.5q-83 0 -117 -39q46 -8 46 -51q0 -27 -18 -40t-42 -13q-25 0 -38.5 20t-13.5 51q0 40 32.5 68t74 39.5t83.5 11.5q94 0 142 -36t48 -128zM260 738q43 0 72.5 -30t29.5 -72 t-29.5 -71.5t-72.5 -29.5t-72.5 29.5t-29.5 71.5t29.5 72t72.5 30zM260 698q-26 0 -43.5 -18t-17.5 -44t17.5 -43.5t43.5 -17.5t43.5 17.5t17.5 43.5t-17.5 44t-43.5 18z" />
<glyph unicode="&#xe6;" horiz-adv-x="778" d="M755 228h-349q0 -196 125 -196q121 0 153 120h58q-34 -167 -202 -167h-5q-63 0 -105 25q-45 25 -79 81q-60 -106 -182 -106q-65 0 -106 31t-41 94q0 49 33.5 80.5t75.5 43.5l97 26q54 16 80 33q8 5 13.5 21t5.5 32q0 43 -25.5 66.5t-68.5 23.5q-87 0 -121 -39 q46 -8 46 -51q0 -27 -18 -40t-42 -13t-38 18.5t-14 41.5q0 64 54.5 97t129.5 33q97 0 154 -62q62 62 149 62q206 0 222 -255zM196 32q54 0 92.5 46.5t38.5 133.5v39q-10 -7 -25.5 -14.5t-27.5 -12l-34 -12.5l-33 -11q-3 -1 -21 -7.5t-26 -11t-20 -14t-17.5 -22.5t-5.5 -31 q0 -39 20.5 -61t58.5 -22zM406 275h254q0 70 -32.5 115.5t-97.5 45.5q-58 0 -91 -46t-33 -115z" />
<glyph unicode="&#xe7;" horiz-adv-x="500" d="M408 172h58q-18 -176 -200 -185l-21 -51q13 5 31 5q34 0 58.5 -17.5t24.5 -47.5q0 -44 -34.5 -66t-82.5 -22q-53 0 -93 18l14 32q27 -11 53 -11q66 0 66 39q0 16 -13.5 26t-32.5 10t-32 -5l-11 6l35 83q-93 3 -151.5 67.5t-58.5 180.5q0 110 70.5 179.5t177.5 69.5 q48 0 92.5 -15t77.5 -50.5t33 -84.5q0 -31 -17 -50t-46 -19q-19 0 -34 14t-15 33q0 49 51 57q-11 34 -49 51t-78 17q-60 0 -99.5 -32.5t-54 -75.5t-14.5 -94q0 -50 14 -93.5t49 -76t86 -32.5q59 0 96.5 37.5t49.5 102.5z" />
<glyph unicode="&#xe8;" horiz-adv-x="500" d="M478 228h-361q0 -42 5.5 -74t20 -61.5t43.5 -45t71 -15.5q118 0 150 120h58q-34 -167 -209 -167q-112 0 -173 63.5t-61 185.5t61 185.5t173 63.5q206 0 222 -255zM117 275h266q0 70 -32.5 115.5t-97.5 45.5q-66 0 -101 -45.5t-35 -115.5zM328 536h-46l-139 87 q-27 17 -35.5 26t-8.5 24q0 14 11.5 26t25.5 12q7 0 13 -1.5t10 -3.5t10 -8l9 -8q4 -3 12.5 -12t12.5 -14z" />
<glyph unicode="&#xe9;" horiz-adv-x="500" d="M478 228h-361q0 -42 5.5 -74t20 -61.5t43.5 -45t71 -15.5q118 0 150 120h58q-34 -167 -209 -167q-112 0 -173 63.5t-61 185.5t61 185.5t173 63.5q206 0 222 -255zM117 275h266q0 70 -32.5 115.5t-97.5 45.5q-66 0 -101 -45.5t-35 -115.5zM221 536h-46l125 128 q4 5 12.5 14l11.5 12l10 8q6 6 10 8t10 3.5t13 1.5q14 0 25.5 -12t11.5 -26q0 -15 -8.5 -24t-35.5 -26z" />
<glyph unicode="&#xea;" horiz-adv-x="500" d="M478 228h-361q0 -42 5.5 -74t20 -61.5t43.5 -45t71 -15.5q118 0 150 120h58q-34 -167 -209 -167q-112 0 -173 63.5t-61 185.5t61 185.5t173 63.5q206 0 222 -255zM117 275h266q0 70 -32.5 115.5t-97.5 45.5q-66 0 -101 -45.5t-35 -115.5zM286 704l124 -169h-43l-115 103 l-116 -103h-43l124 169h69z" />
<glyph unicode="&#xeb;" horiz-adv-x="500" d="M478 228h-361q0 -42 5.5 -74t20 -61.5t43.5 -45t71 -15.5q118 0 150 120h58q-34 -167 -209 -167q-112 0 -173 63.5t-61 185.5t61 185.5t173 63.5q206 0 222 -255zM117 275h266q0 70 -32.5 115.5t-97.5 45.5q-66 0 -101 -45.5t-35 -115.5zM158 655q23 0 38.5 -15.5 t15.5 -37.5t-15.5 -37.5t-38.5 -15.5t-38.5 15.5t-15.5 37.5t15.5 37.5t38.5 15.5zM361 655q23 0 38.5 -15.5t15.5 -37.5t-15.5 -37.5t-38.5 -15.5t-38.5 15.5t-15.5 37.5t15.5 37.5t38.5 15.5z" />
<glyph unicode="&#xec;" horiz-adv-x="333" d="M209 468v-375q0 -25 8 -35.5t32 -10.5h64v-47h-294v47h65q24 0 32 10.5t8 35.5v282q0 25 -8 35.5t-32 10.5h-65v47h190zM226 536h-46l-139 87q-27 17 -35.5 26t-8.5 24q0 14 11.5 26t25.5 12q7 0 13 -1.5t10 -3.5t10 -8l9 -8q4 -3 12.5 -12t12.5 -14z" />
<glyph unicode="&#xed;" horiz-adv-x="333" d="M209 468v-375q0 -25 8 -35.5t32 -10.5h64v-47h-294v47h65q24 0 32 10.5t8 35.5v282q0 25 -8 35.5t-32 10.5h-65v47h190zM119 536h-46l125 128q4 5 12.5 14l11.5 12l10 8q6 6 10 8t10 3.5t13 1.5q14 0 25.5 -12t11.5 -26q0 -15 -8.5 -24t-35.5 -26z" />
<glyph unicode="&#xee;" horiz-adv-x="333" d="M209 468v-375q0 -25 8 -35.5t32 -10.5h64v-47h-294v47h65q24 0 32 10.5t8 35.5v282q0 25 -8 35.5t-32 10.5h-65v47h190zM184 704l124 -169h-43l-115 103l-116 -103h-43l124 169h69z" />
<glyph unicode="&#xef;" horiz-adv-x="333" d="M209 468v-375q0 -25 8 -35.5t32 -10.5h64v-47h-294v47h65q24 0 32 10.5t8 35.5v282q0 25 -8 35.5t-32 10.5h-65v47h190zM56 655q23 0 38.5 -15.5t15.5 -37.5t-15.5 -37.5t-38.5 -15.5t-38.5 15.5t-15.5 37.5t15.5 37.5t38.5 15.5zM259 655q23 0 38.5 -15.5t15.5 -37.5 t-15.5 -37.5t-38.5 -15.5t-38.5 15.5t-15.5 37.5t15.5 37.5t38.5 15.5z" />
<glyph unicode="&#xf0;" horiz-adv-x="556" d="M278 436q-87 0 -125 -56t-38 -146t38 -146t125 -56t125 56t38 146t-38 146t-125 56zM125 540l107 48q-47 33 -104 60l46 15q53 -16 107 -53l116 53l31 -31l-108 -49q92 -70 154 -163.5t62 -185.5q0 -110 -69.5 -179.5t-188.5 -69.5t-188.5 69.5t-69.5 179.5t69.5 179.5 t188.5 69.5q34 0 71 -8q-32 48 -80 85l-107 -48z" />
<glyph unicode="&#xf1;" horiz-adv-x="667" d="M208 468v-85h2q63 100 177 100q77 0 119 -46.5t42 -126.5v-217q0 -25 8 -35.5t32 -10.5h60v-47h-280v47h55q24 0 32 10.5t8 35.5v224q0 54 -24 82t-79 28q-68 0 -109.5 -46.5t-41.5 -109.5v-178q0 -25 8 -35.5t32 -10.5h61v-47h-291v47h65q24 0 32 10.5t8 35.5v282 q0 25 -8 35.5t-32 10.5h-65v47h189zM463 672h34q-12 -50 -36 -78q-29 -34 -76 -34q-31 0 -79 24q-46 24 -64 24q-17 0 -34.5 -16t-19.5 -33h-33q9 48 37.5 79t74.5 31q26 0 76 -24t69 -24q35 0 51 51z" />
<glyph unicode="&#xf2;" horiz-adv-x="556" d="M278 483q119 0 188.5 -69.5t69.5 -179.5t-69.5 -179.5t-188.5 -69.5t-188.5 69.5t-69.5 179.5t69.5 179.5t188.5 69.5zM278 436q-87 0 -125 -56t-38 -146t38 -146t125 -56t125 56t38 146t-38 146t-125 56zM347 536h-46l-139 87q-27 17 -35.5 26t-8.5 24q0 14 11.5 26 t25.5 12q7 0 13 -1.5t10 -3.5t10 -8l10 -8l11.5 -12t12.5 -14z" />
<glyph unicode="&#xf3;" horiz-adv-x="556" d="M278 483q119 0 188.5 -69.5t69.5 -179.5t-69.5 -179.5t-188.5 -69.5t-188.5 69.5t-69.5 179.5t69.5 179.5t188.5 69.5zM278 436q-87 0 -125 -56t-38 -146t38 -146t125 -56t125 56t38 146t-38 146t-125 56zM240 536h-46l125 128q4 5 12.5 14t12.5 12l9 8q6 6 10 8t10 3.5 t13 1.5q14 0 25.5 -12t11.5 -26q0 -15 -8.5 -24t-35.5 -26z" />
<glyph unicode="&#xf4;" horiz-adv-x="556" d="M278 483q119 0 188.5 -69.5t69.5 -179.5t-69.5 -179.5t-188.5 -69.5t-188.5 69.5t-69.5 179.5t69.5 179.5t188.5 69.5zM278 436q-87 0 -125 -56t-38 -146t38 -146t125 -56t125 56t38 146t-38 146t-125 56zM305 704l124 -169h-43l-115 103l-116 -103h-43l124 169h69z" />
<glyph unicode="&#xf5;" horiz-adv-x="556" d="M278 483q119 0 188.5 -69.5t69.5 -179.5t-69.5 -179.5t-188.5 -69.5t-188.5 69.5t-69.5 179.5t69.5 179.5t188.5 69.5zM278 436q-87 0 -125 -56t-38 -146t38 -146t125 -56t125 56t38 146t-38 146t-125 56zM408 672h34q-12 -50 -36 -78q-29 -34 -76 -34q-31 0 -79 24 q-46 24 -64 24q-17 0 -34.5 -16t-19.5 -33h-33q9 48 37.5 79t74.5 31q26 0 76 -24t69 -24q35 0 51 51z" />
<glyph unicode="&#xf6;" horiz-adv-x="556" d="M278 483q119 0 188.5 -69.5t69.5 -179.5t-69.5 -179.5t-188.5 -69.5t-188.5 69.5t-69.5 179.5t69.5 179.5t188.5 69.5zM278 436q-87 0 -125 -56t-38 -146t38 -146t125 -56t125 56t38 146t-38 146t-125 56zM177 655q23 0 38.5 -15.5t15.5 -37.5t-15.5 -37.5t-38.5 -15.5 t-38.5 15.5t-15.5 37.5t15.5 37.5t38.5 15.5zM380 655q23 0 38.5 -15.5t15.5 -37.5t-15.5 -37.5t-38.5 -15.5t-38.5 15.5t-15.5 37.5t15.5 37.5t38.5 15.5z" />
<glyph unicode="&#xf7;" horiz-adv-x="600" d="M534 207h-468v54h468v-54zM244 425q0 23 16.5 39.5t38.5 16.5q23 0 39.5 -16.5t16.5 -39.5q0 -21 -17 -38t-38 -17q-22 0 -39 16.5t-17 38.5zM244 43q0 22 16.5 38.5t38.5 16.5t39 -16.5t17 -38.5q0 -21 -16.5 -38.5t-38.5 -17.5t-39 16.5t-17 39.5z" />
<glyph unicode="&#xf8;" horiz-adv-x="556" d="M131 132l265 256q-40 48 -118 48q-87 0 -125 -56t-38 -146q0 -61 16 -102zM421 348l-267 -260q40 -56 124 -56q87 0 125 56t38 146q0 67 -20 114zM2 7l70 68q-52 64 -52 159q0 110 69.5 179.5t188.5 69.5q97 0 165 -50l72 70l34 -32l-72 -69q59 -68 59 -168 q0 -110 -69.5 -179.5t-188.5 -69.5q-104 0 -173 56l-69 -67z" />
<glyph unicode="&#xf9;" horiz-adv-x="667" d="M459 0v85h-2q-63 -100 -177 -100q-161 0 -161 157v233q0 25 -8 35.5t-32 10.5h-60v47h185v-317q0 -54 24 -82t79 -28q68 0 109.5 46.5t41.5 109.5v178q0 25 -8 35.5t-32 10.5h-61v47h186v-375q0 -25 8 -35.5t32 -10.5h65v-47h-189zM395 536h-46l-139 87q-27 17 -35.5 26 t-8.5 24q0 14 11.5 26t25.5 12q7 0 13 -1.5t10 -3.5t10 -8l10 -8l11.5 -12t12.5 -14z" />
<glyph unicode="&#xfa;" horiz-adv-x="667" d="M459 0v85h-2q-63 -100 -177 -100q-161 0 -161 157v233q0 25 -8 35.5t-32 10.5h-60v47h185v-317q0 -54 24 -82t79 -28q68 0 109.5 46.5t41.5 109.5v178q0 25 -8 35.5t-32 10.5h-61v47h186v-375q0 -25 8 -35.5t32 -10.5h65v-47h-189zM288 536h-46l125 128q4 5 12.5 14 t12.5 12l9 8q6 6 10 8t10 3.5t13 1.5q14 0 25.5 -12t11.5 -26q0 -15 -8.5 -24t-35.5 -26z" />
<glyph unicode="&#xfb;" horiz-adv-x="667" d="M459 0v85h-2q-63 -100 -177 -100q-161 0 -161 157v233q0 25 -8 35.5t-32 10.5h-60v47h185v-317q0 -54 24 -82t79 -28q68 0 109.5 46.5t41.5 109.5v178q0 25 -8 35.5t-32 10.5h-61v47h186v-375q0 -25 8 -35.5t32 -10.5h65v-47h-189zM353 704l124 -169h-43l-115 103 l-116 -103h-43l124 169h69z" />
<glyph unicode="&#xfc;" horiz-adv-x="667" d="M459 0v85h-2q-63 -100 -177 -100q-161 0 -161 157v233q0 25 -8 35.5t-32 10.5h-60v47h185v-317q0 -54 24 -82t79 -28q68 0 109.5 46.5t41.5 109.5v178q0 25 -8 35.5t-32 10.5h-61v47h186v-375q0 -25 8 -35.5t32 -10.5h65v-47h-189zM225 655q23 0 38.5 -15.5t15.5 -37.5 t-15.5 -37.5t-38.5 -15.5t-38.5 15.5t-15.5 37.5t15.5 37.5t38.5 15.5zM428 655q23 0 38.5 -15.5t15.5 -37.5t-15.5 -37.5t-38.5 -15.5t-38.5 15.5t-15.5 37.5t15.5 37.5t38.5 15.5z" />
<glyph unicode="&#xfd;" d="M277 468v-47h-22q-36 0 -48.5 -4t-12.5 -16q0 -10 26 -72l99 -234l117 270q7 19 7 32q0 24 -61 24h-28v47h238v-47h-28q-40 0 -68 -63l-209 -468q-20 -46 -61.5 -74t-93.5 -28q-46 0 -80 28.5t-34 73.5q0 42 19 60.5t43 18.5q22 0 38 -14t16 -38q0 -46 -60 -46 q3 -14 20 -25t39 -11q66 0 99 66l48 97l-169 370q-13 29 -29 41t-43 12h-21v47h259zM267 536h-46l125 128q4 5 12.5 14l11.5 12l10 8q6 6 10 8t10 3.5t13 1.5q14 0 25.5 -12t11.5 -26q0 -15 -8.5 -24t-35.5 -26z" />
<glyph unicode="&#xfe;" d="M319 427q-72 0 -107.5 -55.5t-35.5 -137.5t35.5 -137.5t107.5 -55.5t107.5 55.5t35.5 137.5t-35.5 137.5t-107.5 55.5zM176 663v-283h2q55 103 166 103q104 0 158.5 -71.5t54.5 -175.5q0 -107 -54.5 -179t-158.5 -72q-112 0 -166 94h-2v-193q0 -51 45 -51h55v-47h-280v47 h50q45 0 45 51v678q0 52 -46 52h-49v47h180z" />
<glyph unicode="&#xff;" d="M277 468v-47h-22q-36 0 -48.5 -4t-12.5 -16q0 -10 26 -72l99 -234l117 270q7 19 7 32q0 24 -61 24h-28v47h238v-47h-28q-40 0 -68 -63l-209 -468q-20 -46 -61.5 -74t-93.5 -28q-46 0 -80 28.5t-34 73.5q0 42 19 60.5t43 18.5q22 0 38 -14t16 -38q0 -46 -60 -46 q3 -14 20 -25t39 -11q66 0 99 66l48 97l-169 370q-13 29 -29 41t-43 12h-21v47h259zM204 655q23 0 38.5 -15.5t15.5 -37.5t-15.5 -37.5t-38.5 -15.5t-38.5 15.5t-15.5 37.5t15.5 37.5t38.5 15.5zM407 655q23 0 38.5 -15.5t15.5 -37.5t-15.5 -37.5t-38.5 -15.5t-38.5 15.5 t-15.5 37.5t15.5 37.5t38.5 15.5z" />
<glyph unicode="&#x152;" horiz-adv-x="944" d="M889 264v-264h-226q-126 0 -227 -4q-132 -6 -145 -6q-124 0 -198 93.5t-74 247.5q0 72 20 132t50.5 98t69 64t74.5 37t69 11q2 0 134 -6q101 -4 227 -4h226v-251h-52q-2 44 -5 69.5t-12 54t-26 42.5t-46.5 23.5t-72.5 9.5h-148v-240h43q58 0 74 24t19 107h52v-326h-52 q-3 92 -19 117.5t-74 25.5h-43v-267h148q43 0 72.5 9.5t46.5 24.5t26 45t12 57t5 76h52zM430 110v443q0 38 -26.5 52t-79.5 14q-108 0 -158 -79t-50 -209t50 -208.5t158 -78.5q53 0 79.5 14t26.5 52z" />
<glyph unicode="&#x153;" horiz-adv-x="889" d="M115 234q0 -90 38 -146t125 -56q79 0 116.5 56.5t37.5 145.5t-37.5 145.5t-116.5 56.5q-87 0 -125 -56t-38 -146zM511 275h262q0 70 -32.5 115.5t-97.5 45.5q-64 0 -98 -46t-34 -115zM797 152h58q-34 -167 -202 -167q-118 0 -183 89q-65 -89 -192 -89q-119 0 -188.5 69.5 t-69.5 179.5t69.5 179.5t188.5 69.5q129 0 194 -87q68 87 174 87q109 0 162 -69.5t60 -185.5h-357q0 -42 5.5 -74t19.5 -61.5t42 -45t69 -15.5q118 0 150 120z" />
<glyph unicode="&#x178;" horiz-adv-x="722" d="M16 611v52h308v-52h-42q-60 0 -60 -22q0 -5 3 -11.5t9.5 -15.5t8.5 -13l132 -224l138 220q19 30 19 42q0 24 -45 24h-56v52h270v-52h-25q-24 0 -48.5 -17t-40.5 -43l-180 -292v-145q0 -35 19 -48.5t57 -13.5h56v-52h-361v52h56q38 0 57 13.5t19 48.5v145l-194 311 q-26 41 -74 41h-26zM276 828q23 0 38.5 -15.5t15.5 -37.5t-15.5 -37.5t-38.5 -15.5t-38.5 15.5t-15.5 37.5t15.5 37.5t38.5 15.5zM479 828q23 0 38.5 -15.5t15.5 -37.5t-15.5 -37.5t-38.5 -15.5t-38.5 15.5t-15.5 37.5t15.5 37.5t38.5 15.5z" />
<glyph unicode="&#x2c6;" horiz-adv-x="333" d="M193 704l124 -169h-43l-115 103l-116 -103h-43l124 169h69z" />
<glyph unicode="&#x2dc;" horiz-adv-x="333" d="M296 672h34q-12 -50 -36 -78q-29 -34 -76 -34q-31 0 -79 24q-46 24 -64 24q-17 0 -34.5 -16t-19.5 -33h-33q9 48 37.5 79t74.5 31q26 0 76 -24t69 -24q35 0 51 51z" />
<glyph unicode="&#x2000;" horiz-adv-x="455" />
<glyph unicode="&#x2001;" horiz-adv-x="911" />
<glyph unicode="&#x2002;" horiz-adv-x="455" />
<glyph unicode="&#x2003;" horiz-adv-x="911" />
<glyph unicode="&#x2004;" horiz-adv-x="303" />
<glyph unicode="&#x2005;" horiz-adv-x="227" />
<glyph unicode="&#x2006;" horiz-adv-x="151" />
<glyph unicode="&#x2007;" horiz-adv-x="151" />
<glyph unicode="&#x2008;" horiz-adv-x="113" />
<glyph unicode="&#x2009;" horiz-adv-x="182" />
<glyph unicode="&#x200a;" horiz-adv-x="50" />
<glyph unicode="&#x2010;" horiz-adv-x="305" d="M282 198h-259v72h259v-72z" />
<glyph unicode="&#x2011;" horiz-adv-x="305" d="M282 198h-259v72h259v-72z" />
<glyph unicode="&#x2013;" horiz-adv-x="500" d="M500 206h-500v56h500v-56z" />
<glyph unicode="&#x2014;" horiz-adv-x="1000" d="M0 262h1000v-56h-1000v56z" />
<glyph unicode="&#x2018;" horiz-adv-x="222" d="M181 683v-37q-32 -2 -62.5 -28t-33.5 -56q-1 -14 0 -29q23 13 40 13q53 0 53 -50q0 -25 -17 -39.5t-44 -14.5q-37 0 -56.5 26.5t-19.5 66.5q0 49 35.5 93t104.5 55z" />
<glyph unicode="&#x2019;" horiz-adv-x="222" d="M41 442v37q32 2 62.5 28t33.5 56q1 15 0 29q-23 -13 -40 -13q-53 0 -53 50q0 25 17 39.5t44 14.5q37 0 56.5 -26.5t19.5 -66.5q0 -49 -35.5 -93t-104.5 -55z" />
<glyph unicode="&#x201a;" horiz-adv-x="222" d="M41 -144v37q32 2 62.5 28t33.5 56q1 15 0 29q-23 -13 -40 -13q-53 0 -53 50q0 25 17 39.5t44 14.5q37 0 56.5 -26.5t19.5 -66.5q0 -49 -35.5 -93t-104.5 -55z" />
<glyph unicode="&#x201c;" horiz-adv-x="444" d="M403 683v-37q-32 -2 -62.5 -28t-33.5 -56q-1 -14 0 -29q23 13 40 13q53 0 53 -50q0 -25 -17 -39.5t-44 -14.5q-37 0 -56.5 26.5t-19.5 66.5q0 49 35.5 93t104.5 55zM181 683v-37q-32 -2 -62.5 -28t-33.5 -56q-1 -14 0 -29q23 13 40 13q53 0 53 -50q0 -25 -17 -39.5 t-44 -14.5q-37 0 -56.5 26.5t-19.5 66.5q0 49 35.5 93t104.5 55z" />
<glyph unicode="&#x201d;" horiz-adv-x="444" d="M263 442v37q32 2 62.5 28t33.5 56q1 15 0 29q-23 -13 -40 -13q-53 0 -53 50q0 25 17 39.5t44 14.5q37 0 56.5 -26.5t19.5 -66.5q0 -49 -35.5 -93t-104.5 -55zM41 442v37q32 2 62.5 28t33.5 56q1 15 0 29q-23 -13 -40 -13q-53 0 -53 50q0 25 17 39.5t44 14.5 q37 0 56.5 -26.5t19.5 -66.5q0 -49 -35.5 -93t-104.5 -55z" />
<glyph unicode="&#x201e;" horiz-adv-x="444" d="M263 -144v37q32 2 62.5 28t33.5 56q1 15 0 29q-23 -13 -40 -13q-53 0 -53 50q0 25 17 39.5t44 14.5q37 0 56.5 -26.5t19.5 -66.5q0 -49 -35.5 -93t-104.5 -55zM41 -144v37q32 2 62.5 28t33.5 56q1 15 0 29q-23 -13 -40 -13q-53 0 -53 50q0 25 17 39.5t44 14.5 q37 0 56.5 -26.5t19.5 -66.5q0 -49 -35.5 -93t-104.5 -55z" />
<glyph unicode="&#x2022;" horiz-adv-x="500" d="M416 332q0 -70 -48.5 -118t-117.5 -48t-117.5 48t-48.5 118q-1 69 48 117.5t118 48.5t117.5 -48.5t48.5 -117.5z" />
<glyph unicode="&#x2026;" horiz-adv-x="1000" d="M167 97q25 0 40.5 -16t15.5 -40t-15.5 -40t-40.5 -16t-40.5 16t-15.5 40t15.5 40t40.5 16zM500 97q25 0 40.5 -16t15.5 -40t-15.5 -40t-40.5 -16t-40.5 16t-15.5 40t15.5 40t40.5 16zM833 97q25 0 40.5 -16t15.5 -40t-15.5 -40t-40.5 -16t-40.5 16t-15.5 40t15.5 40 t40.5 16z" />
<glyph unicode="&#x202f;" horiz-adv-x="182" />
<glyph unicode="&#x2039;" horiz-adv-x="333" d="M188 400h55q-3 -7 -23 -48l-38 -78q-17 -37 -17 -40q0 -1 18 -38l37 -80l23 -47h-55q-2 2 -15 22l-25 39l-27 41q-14 22 -22.5 39t-8.5 23q0 13 20.5 47t46 71.5t31.5 48.5z" />
<glyph unicode="&#x203a;" horiz-adv-x="333" d="M90 400h55q6 -11 31.5 -48.5t46 -71.5t20.5 -47q0 -6 -8.5 -23t-22.5 -39l-26 -41l-26 -39q-13 -20 -15 -22h-55q3 6 22 47l38 80q18 37 18 38q0 3 -18 40l-37 78q-20 41 -23 48z" />
<glyph unicode="&#x205f;" horiz-adv-x="227" />
<glyph unicode="&#x20ac;" d="M52 288h46v14q0 24 1 36h-67l20 50h53q17 107 77.5 169.5t160.5 62.5q49 0 85 -14t68 -51l17 51h44v-173h-47q-15 66 -53.5 101.5t-95.5 35.5q-133 0 -158 -182h290l-20 -50h-275q-1 -12 -1 -36v-14h257l-20 -50h-234q11 -91 50.5 -147t109.5 -56q122 0 150 137h47v-172 h-44l-17 50q-56 -65 -156 -65q-104 0 -164 70t-74 183h-70z" />
<glyph unicode="&#x2122;" horiz-adv-x="990" d="M237 644v-310q0 -38 6 -45t44 -11v-19h-163v19q38 4 44 11t6 45v310h-51q-51 0 -68 -69h-19v88h339v-88h-19q-17 69 -68 69h-51zM668 256l-152 311h-2v-225q0 -33 10.5 -46.5t41.5 -17.5v-19h-130v19q32 4 42.5 17.5t10.5 46.5v252q-9 22 -28.5 36t-40.5 14v19h115 l157 -315l164 315h98v-19q-31 -1 -44 -15.5t-13 -41.5v-253q0 -38 6 -45t44 -11v-19h-163v19q39 5 45 11q5 6 5 45v236h-2l-155 -314h-9z" />
</font>
</defs>
</svg>
